<svg width="360" height="996" viewBox="0 0 360 996" fill="none" xmlns="http://www.w3.org/2000/svg" xmlns:xlink="http://www.w3.org/1999/xlink">
<rect width="360" height="996" fill="white"/>
<g clip-path="url(#clip0_14_13596)">
<path d="M0 204H360V406H0V204Z" fill="#F2F2F2"/>
<rect y="204" width="360" height="202" fill="url(#pattern0_14_13596)"/>
<rect y="204" width="360" height="40" fill="url(#paint0_linear_14_13596)" fill-opacity="0.7"/>
<path d="M24.0312 224.168C24.0273 224.781 24.1367 225.389 24.3594 225.99C24.582 226.592 24.8945 227.131 25.2969 227.607C25.6992 228.08 26.1562 228.441 26.668 228.691L25.9766 229.582C25.4141 229.285 24.916 228.861 24.4824 228.311C24.0527 227.756 23.7207 227.123 23.4863 226.412C23.248 227.17 22.9043 227.846 22.4551 228.439C22.0098 229.029 21.4922 229.477 20.9023 229.781L20.2109 228.879C20.7383 228.625 21.207 228.25 21.6172 227.754C22.0273 227.258 22.3457 226.695 22.5723 226.066C22.8027 225.438 22.918 224.805 22.918 224.168V222.375H24.0312V224.168ZM27.4531 221.496H28.5664V225.68H30.2539V226.629H28.5664V231.996H27.4531V221.496ZM40.3555 228.422H36.0664V231.984H34.9766V228.422H30.7461V227.52H40.3555V228.422ZM31.9531 222.059H39.1484V226.184H31.9531V222.059ZM38.0352 225.316V222.949H33.043V225.316H38.0352ZM49.8242 226.898H48.7227V221.496H49.8242V226.898ZM41.1641 225.961C41.6992 225.781 42.166 225.52 42.5645 225.176C42.9668 224.832 43.2734 224.436 43.4844 223.986C43.6992 223.537 43.8086 223.07 43.8125 222.586V221.777H44.9492V222.586C44.9492 223.051 45.0547 223.496 45.2656 223.922C45.4766 224.348 45.7793 224.723 46.1738 225.047C46.5684 225.367 47.0312 225.609 47.5625 225.773L47.0117 226.641C46.4023 226.441 45.873 226.145 45.4238 225.75C44.9746 225.355 44.6309 224.889 44.3926 224.35C44.1504 224.932 43.7988 225.439 43.3379 225.873C42.8809 226.307 42.3438 226.629 41.7266 226.84L41.1641 225.961ZM42.9336 227.402H49.8359V230.027H44.0469V231H50.1875V231.891H42.9688V229.184H48.7344V228.281H42.9336V227.402ZM57.7461 231.117C57.0938 231.117 56.5332 230.947 56.0645 230.607C55.5996 230.264 55.2441 229.766 54.998 229.113C54.752 228.461 54.6289 227.676 54.6289 226.758C54.6289 225.844 54.752 225.061 54.998 224.408C55.248 223.756 55.6055 223.258 56.0703 222.914C56.5391 222.57 57.0977 222.398 57.7461 222.398C58.3906 222.398 58.9453 222.57 59.4102 222.914C59.8789 223.258 60.2383 223.756 60.4883 224.408C60.7383 225.061 60.8633 225.844 60.8633 226.758C60.8633 227.676 60.7383 228.463 60.4883 229.119C60.2422 229.771 59.8867 230.268 59.4219 230.607C58.957 230.947 58.3984 231.117 57.7461 231.117ZM55.918 226.787C55.918 227.479 55.9902 228.064 56.1348 228.545C56.2793 229.025 56.4883 229.389 56.7617 229.635C57.0352 229.881 57.3633 230.004 57.7461 230.004C58.1289 230.004 58.457 229.881 58.7305 229.635C59.0039 229.385 59.2129 229.018 59.3574 228.533C59.502 228.049 59.5742 227.457 59.5742 226.758C59.5742 226.062 59.5 225.471 59.3516 224.982C59.207 224.494 58.998 224.125 58.7246 223.875C58.4512 223.621 58.125 223.492 57.7461 223.488C57.3633 223.488 57.0352 223.617 56.7617 223.875C56.4883 224.129 56.2793 224.504 56.1348 225C55.9902 225.492 55.918 226.088 55.918 226.787ZM65.4219 231H64.1211V223.805H64.0742L62.0469 225.129V223.898L64.1562 222.516H65.4219V231Z" fill="white"/>
</g>
<path d="M20.875 184.906L24.3066 181.447C24.7214 181.019 25.0381 180.673 25.2568 180.408C25.4756 180.139 25.6419 179.88 25.7559 179.629C25.8743 179.374 25.9336 179.105 25.9336 178.822C25.9336 178.503 25.8538 178.223 25.6943 177.981C25.5348 177.74 25.3161 177.553 25.0381 177.421C24.7601 177.289 24.4479 177.223 24.1016 177.223C23.737 177.223 23.418 177.296 23.1445 177.441C22.8757 177.587 22.666 177.792 22.5156 178.057C22.3698 178.316 22.2969 178.622 22.2969 178.973H20.875C20.8704 178.38 21.0072 177.856 21.2852 177.4C21.5632 176.945 21.9505 176.591 22.4473 176.341C22.944 176.09 23.5046 175.965 24.1289 175.965C24.7533 175.965 25.3092 176.088 25.7969 176.334C26.2891 176.576 26.6719 176.91 26.9453 177.339C27.2233 177.767 27.3646 178.248 27.3691 178.781C27.3646 179.16 27.2917 179.524 27.1504 179.875C27.0091 180.221 26.7676 180.609 26.4258 181.037C26.084 181.461 25.6009 181.98 24.9766 182.596L22.9668 184.633V184.715H27.5332V186H20.875V184.906ZM32.6465 186.137C31.8854 186.137 31.2314 185.938 30.6846 185.542C30.1423 185.141 29.7275 184.56 29.4404 183.799C29.1533 183.038 29.0098 182.122 29.0098 181.051C29.0098 179.984 29.1533 179.071 29.4404 178.31C29.7321 177.549 30.1491 176.967 30.6914 176.566C31.2383 176.165 31.89 175.965 32.6465 175.965C33.3984 175.965 34.0456 176.165 34.5879 176.566C35.1348 176.967 35.554 177.549 35.8457 178.31C36.1374 179.071 36.2832 179.984 36.2832 181.051C36.2832 182.122 36.1374 183.04 35.8457 183.806C35.5586 184.567 35.1439 185.146 34.6016 185.542C34.0592 185.938 33.4076 186.137 32.6465 186.137ZM30.5137 181.085C30.5137 181.892 30.598 182.575 30.7666 183.136C30.9352 183.696 31.179 184.12 31.498 184.407C31.8171 184.694 32.1999 184.838 32.6465 184.838C33.0931 184.838 33.4759 184.694 33.7949 184.407C34.1139 184.116 34.3577 183.687 34.5264 183.122C34.695 182.557 34.7793 181.867 34.7793 181.051C34.7793 180.24 34.6927 179.549 34.5195 178.979C34.3509 178.41 34.1071 177.979 33.7881 177.688C33.4691 177.391 33.0885 177.241 32.6465 177.236C32.1999 177.236 31.8171 177.387 31.498 177.688C31.179 177.984 30.9352 178.421 30.7666 179C30.598 179.574 30.5137 180.269 30.5137 181.085ZM37.8418 184.906L41.2734 181.447C41.6882 181.019 42.0049 180.673 42.2236 180.408C42.4424 180.139 42.6087 179.88 42.7227 179.629C42.8411 179.374 42.9004 179.105 42.9004 178.822C42.9004 178.503 42.8206 178.223 42.6611 177.981C42.5016 177.74 42.2829 177.553 42.0049 177.421C41.7269 177.289 41.4147 177.223 41.0684 177.223C40.7038 177.223 40.3848 177.296 40.1113 177.441C39.8424 177.587 39.6328 177.792 39.4824 178.057C39.3366 178.316 39.2637 178.622 39.2637 178.973H37.8418C37.8372 178.38 37.974 177.856 38.252 177.4C38.5299 176.945 38.9173 176.591 39.4141 176.341C39.9108 176.09 40.4714 175.965 41.0957 175.965C41.7201 175.965 42.276 176.088 42.7637 176.334C43.2559 176.576 43.6387 176.91 43.9121 177.339C44.1901 177.767 44.3314 178.248 44.3359 178.781C44.3314 179.16 44.2585 179.524 44.1172 179.875C43.9759 180.221 43.7344 180.609 43.3926 181.037C43.0508 181.461 42.5677 181.98 41.9434 182.596L39.9336 184.633V184.715H44.5V186H37.8418V184.906ZM46.168 184.906L49.5996 181.447C50.0143 181.019 50.3311 180.673 50.5498 180.408C50.7686 180.139 50.9349 179.88 51.0488 179.629C51.1673 179.374 51.2266 179.105 51.2266 178.822C51.2266 178.503 51.1468 178.223 50.9873 177.981C50.8278 177.74 50.609 177.553 50.3311 177.421C50.0531 177.289 49.7409 177.223 49.3945 177.223C49.0299 177.223 48.7109 177.296 48.4375 177.441C48.1686 177.587 47.959 177.792 47.8086 178.057C47.6628 178.316 47.5898 178.622 47.5898 178.973H46.168C46.1634 178.38 46.3001 177.856 46.5781 177.4C46.8561 176.945 47.2435 176.591 47.7402 176.341C48.237 176.09 48.7975 175.965 49.4219 175.965C50.0462 175.965 50.6022 176.088 51.0898 176.334C51.582 176.576 51.9648 176.91 52.2383 177.339C52.5163 177.767 52.6576 178.248 52.6621 178.781C52.6576 179.16 52.5846 179.524 52.4434 179.875C52.3021 180.221 52.0605 180.609 51.7188 181.037C51.377 181.461 50.8939 181.98 50.2695 182.596L48.2598 184.633V184.715H52.8262V186H46.168V184.906ZM55.4648 186.096C55.2917 186.096 55.1299 186.052 54.9795 185.966C54.8337 185.879 54.7152 185.763 54.624 185.617C54.5374 185.471 54.4941 185.312 54.4941 185.139C54.4941 184.961 54.5374 184.797 54.624 184.646C54.7106 184.496 54.8268 184.378 54.9727 184.291C55.123 184.2 55.2871 184.154 55.4648 184.154C55.638 184.154 55.7975 184.198 55.9434 184.284C56.0938 184.371 56.2122 184.489 56.2988 184.64C56.39 184.79 56.4355 184.952 56.4355 185.125C56.4355 185.298 56.39 185.46 56.2988 185.61C56.2122 185.756 56.0938 185.875 55.9434 185.966C55.7975 186.052 55.638 186.096 55.4648 186.096ZM61.2617 186.137C60.5007 186.137 59.8467 185.938 59.2998 185.542C58.7575 185.141 58.3428 184.56 58.0557 183.799C57.7686 183.038 57.625 182.122 57.625 181.051C57.625 179.984 57.7686 179.071 58.0557 178.31C58.3473 177.549 58.7643 176.967 59.3066 176.566C59.8535 176.165 60.5052 175.965 61.2617 175.965C62.0137 175.965 62.6608 176.165 63.2031 176.566C63.75 176.967 64.1693 177.549 64.4609 178.31C64.7526 179.071 64.8984 179.984 64.8984 181.051C64.8984 182.122 64.7526 183.04 64.4609 183.806C64.1738 184.567 63.7591 185.146 63.2168 185.542C62.6745 185.938 62.0228 186.137 61.2617 186.137ZM59.1289 181.085C59.1289 181.892 59.2132 182.575 59.3818 183.136C59.5505 183.696 59.7943 184.12 60.1133 184.407C60.4323 184.694 60.8151 184.838 61.2617 184.838C61.7083 184.838 62.0911 184.694 62.4102 184.407C62.7292 184.116 62.973 183.687 63.1416 183.122C63.3102 182.557 63.3945 181.867 63.3945 181.051C63.3945 180.24 63.3079 179.549 63.1348 178.979C62.9661 178.41 62.7223 177.979 62.4033 177.688C62.0843 177.391 61.7038 177.241 61.2617 177.236C60.8151 177.236 60.4323 177.387 60.1133 177.688C59.7943 177.984 59.5505 178.421 59.3818 179C59.2132 179.574 59.1289 180.269 59.1289 181.085ZM69.916 186.137C69.2096 186.137 68.5785 186.018 68.0225 185.781C67.471 185.544 67.0404 185.216 66.7305 184.797C66.4251 184.373 66.2747 183.895 66.2793 183.361C66.2747 182.947 66.3613 182.562 66.5391 182.206C66.7214 181.846 66.9697 181.55 67.2842 181.317C67.6032 181.08 67.9564 180.932 68.3438 180.873V180.818C68.0065 180.741 67.7103 180.597 67.4551 180.388C67.1999 180.174 67.0016 179.911 66.8604 179.602C66.7191 179.292 66.6484 178.959 66.6484 178.604C66.6484 178.102 66.7874 177.651 67.0654 177.25C67.348 176.849 67.7376 176.535 68.2344 176.307C68.7311 176.079 69.2917 175.965 69.916 175.965C70.5312 175.965 71.085 176.079 71.5771 176.307C72.0739 176.535 72.4635 176.849 72.7461 177.25C73.0286 177.651 73.1699 178.102 73.1699 178.604C73.1699 178.959 73.097 179.292 72.9512 179.602C72.8099 179.911 72.6094 180.174 72.3496 180.388C72.0944 180.597 71.8027 180.741 71.4746 180.818V180.873C71.8574 180.932 72.2061 181.08 72.5205 181.317C72.8395 181.55 73.0902 181.846 73.2725 182.206C73.4593 182.562 73.5527 182.947 73.5527 183.361C73.5527 183.895 73.3955 184.373 73.0811 184.797C72.7712 185.216 72.3405 185.544 71.7891 185.781C71.2376 186.018 70.6133 186.137 69.916 186.137ZM67.8105 183.252C67.806 183.576 67.888 183.86 68.0566 184.106C68.2253 184.353 68.4691 184.546 68.7881 184.688C69.1117 184.824 69.4876 184.893 69.916 184.893C70.3398 184.893 70.709 184.824 71.0234 184.688C71.3424 184.551 71.5885 184.359 71.7617 184.113C71.9349 183.863 72.0215 183.576 72.0215 183.252C72.0215 182.915 71.9303 182.614 71.748 182.35C71.5658 182.081 71.3151 181.871 70.9961 181.721C70.6771 181.566 70.3171 181.488 69.916 181.488C69.5104 181.488 69.1458 181.566 68.8223 181.721C68.4987 181.871 68.248 182.081 68.0703 182.35C67.8926 182.618 67.806 182.919 67.8105 183.252ZM68.1113 178.74C68.1113 179.046 68.1888 179.317 68.3438 179.554C68.4987 179.791 68.7106 179.975 68.9795 180.107C69.2529 180.235 69.5651 180.299 69.916 180.299C70.2578 180.299 70.5632 180.235 70.832 180.107C71.1055 179.975 71.3174 179.791 71.4678 179.554C71.6182 179.317 71.6934 179.046 71.6934 178.74C71.6934 178.435 71.6182 178.166 71.4678 177.934C71.3219 177.697 71.1146 177.514 70.8457 177.387C70.5768 177.259 70.2669 177.195 69.916 177.195C69.5605 177.195 69.2461 177.259 68.9727 177.387C68.6992 177.514 68.4873 177.697 68.3369 177.934C68.1865 178.166 68.1113 178.435 68.1113 178.74ZM75.7812 186.096C75.6081 186.096 75.4463 186.052 75.2959 185.966C75.1501 185.879 75.0316 185.763 74.9404 185.617C74.8538 185.471 74.8105 185.312 74.8105 185.139C74.8105 184.961 74.8538 184.797 74.9404 184.646C75.027 184.496 75.1432 184.378 75.2891 184.291C75.4395 184.2 75.6035 184.154 75.7812 184.154C75.9544 184.154 76.1139 184.198 76.2598 184.284C76.4102 184.371 76.5286 184.489 76.6152 184.64C76.7064 184.79 76.752 184.952 76.752 185.125C76.752 185.298 76.7064 185.46 76.6152 185.61C76.5286 185.756 76.4102 185.875 76.2598 185.966C76.1139 186.052 75.9544 186.096 75.7812 186.096ZM78.502 184.906L81.9336 181.447C82.3483 181.019 82.665 180.673 82.8838 180.408C83.1025 180.139 83.2689 179.88 83.3828 179.629C83.5013 179.374 83.5605 179.105 83.5605 178.822C83.5605 178.503 83.4808 178.223 83.3213 177.981C83.1618 177.74 82.943 177.553 82.665 177.421C82.387 177.289 82.0749 177.223 81.7285 177.223C81.3639 177.223 81.0449 177.296 80.7715 177.441C80.5026 177.587 80.293 177.792 80.1426 178.057C79.9967 178.316 79.9238 178.622 79.9238 178.973H78.502C78.4974 178.38 78.6341 177.856 78.9121 177.4C79.1901 176.945 79.5775 176.591 80.0742 176.341C80.571 176.09 81.1315 175.965 81.7559 175.965C82.3802 175.965 82.9362 176.088 83.4238 176.334C83.916 176.576 84.2988 176.91 84.5723 177.339C84.8503 177.767 84.9915 178.248 84.9961 178.781C84.9915 179.16 84.9186 179.524 84.7773 179.875C84.6361 180.221 84.3945 180.609 84.0527 181.037C83.7109 181.461 83.2279 181.98 82.6035 182.596L80.5938 184.633V184.715H85.1602V186H78.502V184.906ZM86.3906 182.855L90.7656 176.102H92.625V182.801H93.9785V184.072H92.625V186H91.2031V184.072H86.3906V182.855ZM91.2031 182.801V177.893H91.0938L87.9766 182.719V182.801H91.2031Z" fill="#353535"/>
<path d="M107.635 186H106.117V177.605H106.062L103.697 179.15V177.715L106.158 176.102H107.635V186ZM113.609 186.137C112.903 186.137 112.272 186.018 111.716 185.781C111.164 185.544 110.734 185.216 110.424 184.797C110.118 184.373 109.968 183.895 109.973 183.361C109.968 182.947 110.055 182.562 110.232 182.206C110.415 181.846 110.663 181.55 110.978 181.317C111.297 181.08 111.65 180.932 112.037 180.873V180.818C111.7 180.741 111.404 180.597 111.148 180.388C110.893 180.174 110.695 179.911 110.554 179.602C110.412 179.292 110.342 178.959 110.342 178.604C110.342 178.102 110.481 177.651 110.759 177.25C111.041 176.849 111.431 176.535 111.928 176.307C112.424 176.079 112.985 175.965 113.609 175.965C114.225 175.965 114.778 176.079 115.271 176.307C115.767 176.535 116.157 176.849 116.439 177.25C116.722 177.651 116.863 178.102 116.863 178.604C116.863 178.959 116.79 179.292 116.645 179.602C116.503 179.911 116.303 180.174 116.043 180.388C115.788 180.597 115.496 180.741 115.168 180.818V180.873C115.551 180.932 115.899 181.08 116.214 181.317C116.533 181.55 116.784 181.846 116.966 182.206C117.153 182.562 117.246 182.947 117.246 183.361C117.246 183.895 117.089 184.373 116.774 184.797C116.465 185.216 116.034 185.544 115.482 185.781C114.931 186.018 114.307 186.137 113.609 186.137ZM111.504 183.252C111.499 183.576 111.581 183.86 111.75 184.106C111.919 184.353 112.162 184.546 112.481 184.688C112.805 184.824 113.181 184.893 113.609 184.893C114.033 184.893 114.402 184.824 114.717 184.688C115.036 184.551 115.282 184.359 115.455 184.113C115.628 183.863 115.715 183.576 115.715 183.252C115.715 182.915 115.624 182.614 115.441 182.35C115.259 182.081 115.008 181.871 114.689 181.721C114.37 181.566 114.01 181.488 113.609 181.488C113.204 181.488 112.839 181.566 112.516 181.721C112.192 181.871 111.941 182.081 111.764 182.35C111.586 182.618 111.499 182.919 111.504 183.252ZM111.805 178.74C111.805 179.046 111.882 179.317 112.037 179.554C112.192 179.791 112.404 179.975 112.673 180.107C112.946 180.235 113.258 180.299 113.609 180.299C113.951 180.299 114.257 180.235 114.525 180.107C114.799 179.975 115.011 179.791 115.161 179.554C115.312 179.317 115.387 179.046 115.387 178.74C115.387 178.435 115.312 178.166 115.161 177.934C115.015 177.697 114.808 177.514 114.539 177.387C114.27 177.259 113.96 177.195 113.609 177.195C113.254 177.195 112.939 177.259 112.666 177.387C112.393 177.514 112.181 177.697 112.03 177.934C111.88 178.166 111.805 178.435 111.805 178.74ZM119.775 184.729C119.602 184.729 119.44 184.685 119.29 184.599C119.144 184.512 119.026 184.396 118.935 184.25C118.848 184.104 118.805 183.945 118.805 183.771C118.805 183.594 118.848 183.43 118.935 183.279C119.021 183.129 119.137 183.01 119.283 182.924C119.434 182.833 119.598 182.787 119.775 182.787C119.949 182.787 120.108 182.83 120.254 182.917C120.404 183.004 120.523 183.122 120.609 183.272C120.701 183.423 120.746 183.585 120.746 183.758C120.746 183.931 120.701 184.093 120.609 184.243C120.523 184.389 120.404 184.507 120.254 184.599C120.108 184.685 119.949 184.729 119.775 184.729ZM119.775 179.328C119.602 179.328 119.44 179.285 119.29 179.198C119.144 179.112 119.026 178.995 118.935 178.85C118.848 178.704 118.805 178.544 118.805 178.371C118.805 178.193 118.848 178.029 118.935 177.879C119.021 177.729 119.137 177.61 119.283 177.523C119.434 177.432 119.598 177.387 119.775 177.387C119.949 177.387 120.108 177.43 120.254 177.517C120.404 177.603 120.523 177.722 120.609 177.872C120.701 178.022 120.746 178.184 120.746 178.357C120.746 178.531 120.701 178.692 120.609 178.843C120.523 178.989 120.404 179.107 120.254 179.198C120.108 179.285 119.949 179.328 119.775 179.328ZM122.496 184.906L125.928 181.447C126.342 181.019 126.659 180.673 126.878 180.408C127.097 180.139 127.263 179.88 127.377 179.629C127.495 179.374 127.555 179.105 127.555 178.822C127.555 178.503 127.475 178.223 127.315 177.981C127.156 177.74 126.937 177.553 126.659 177.421C126.381 177.289 126.069 177.223 125.723 177.223C125.358 177.223 125.039 177.296 124.766 177.441C124.497 177.587 124.287 177.792 124.137 178.057C123.991 178.316 123.918 178.622 123.918 178.973H122.496C122.492 178.38 122.628 177.856 122.906 177.4C123.184 176.945 123.572 176.591 124.068 176.341C124.565 176.09 125.126 175.965 125.75 175.965C126.374 175.965 126.93 176.088 127.418 176.334C127.91 176.576 128.293 176.91 128.566 177.339C128.844 177.767 128.986 178.248 128.99 178.781C128.986 179.16 128.913 179.524 128.771 179.875C128.63 180.221 128.389 180.609 128.047 181.037C127.705 181.461 127.222 181.98 126.598 182.596L124.588 184.633V184.715H129.154V186H122.496V184.906ZM134.268 186.137C133.507 186.137 132.853 185.938 132.306 185.542C131.763 185.141 131.349 184.56 131.062 183.799C130.774 183.038 130.631 182.122 130.631 181.051C130.631 179.984 130.774 179.071 131.062 178.31C131.353 177.549 131.77 176.967 132.312 176.566C132.859 176.165 133.511 175.965 134.268 175.965C135.02 175.965 135.667 176.165 136.209 176.566C136.756 176.967 137.175 177.549 137.467 178.31C137.758 179.071 137.904 179.984 137.904 181.051C137.904 182.122 137.758 183.04 137.467 183.806C137.18 184.567 136.765 185.146 136.223 185.542C135.68 185.938 135.029 186.137 134.268 186.137ZM132.135 181.085C132.135 181.892 132.219 182.575 132.388 183.136C132.556 183.696 132.8 184.12 133.119 184.407C133.438 184.694 133.821 184.838 134.268 184.838C134.714 184.838 135.097 184.694 135.416 184.407C135.735 184.116 135.979 183.687 136.147 183.122C136.316 182.557 136.4 181.867 136.4 181.051C136.4 180.24 136.314 179.549 136.141 178.979C135.972 178.41 135.728 177.979 135.409 177.688C135.09 177.391 134.71 177.241 134.268 177.236C133.821 177.236 133.438 177.387 133.119 177.688C132.8 177.984 132.556 178.421 132.388 179C132.219 179.574 132.135 180.269 132.135 181.085ZM140.434 184.729C140.26 184.729 140.099 184.685 139.948 184.599C139.802 184.512 139.684 184.396 139.593 184.25C139.506 184.104 139.463 183.945 139.463 183.771C139.463 183.594 139.506 183.43 139.593 183.279C139.679 183.129 139.796 183.01 139.941 182.924C140.092 182.833 140.256 182.787 140.434 182.787C140.607 182.787 140.766 182.83 140.912 182.917C141.062 183.004 141.181 183.122 141.268 183.272C141.359 183.423 141.404 183.585 141.404 183.758C141.404 183.931 141.359 184.093 141.268 184.243C141.181 184.389 141.062 184.507 140.912 184.599C140.766 184.685 140.607 184.729 140.434 184.729ZM140.434 179.328C140.26 179.328 140.099 179.285 139.948 179.198C139.802 179.112 139.684 178.995 139.593 178.85C139.506 178.704 139.463 178.544 139.463 178.371C139.463 178.193 139.506 178.029 139.593 177.879C139.679 177.729 139.796 177.61 139.941 177.523C140.092 177.432 140.256 177.387 140.434 177.387C140.607 177.387 140.766 177.43 140.912 177.517C141.062 177.603 141.181 177.722 141.268 177.872C141.359 178.022 141.404 178.184 141.404 178.357C141.404 178.531 141.359 178.692 141.268 178.843C141.181 178.989 141.062 179.107 140.912 179.198C140.766 179.285 140.607 179.328 140.434 179.328ZM146.6 186.137C145.839 186.137 145.185 185.938 144.638 185.542C144.095 185.141 143.681 184.56 143.394 183.799C143.106 183.038 142.963 182.122 142.963 181.051C142.963 179.984 143.106 179.071 143.394 178.31C143.685 177.549 144.102 176.967 144.645 176.566C145.191 176.165 145.843 175.965 146.6 175.965C147.352 175.965 147.999 176.165 148.541 176.566C149.088 176.967 149.507 177.549 149.799 178.31C150.09 179.071 150.236 179.984 150.236 181.051C150.236 182.122 150.09 183.04 149.799 183.806C149.512 184.567 149.097 185.146 148.555 185.542C148.012 185.938 147.361 186.137 146.6 186.137ZM144.467 181.085C144.467 181.892 144.551 182.575 144.72 183.136C144.888 183.696 145.132 184.12 145.451 184.407C145.77 184.694 146.153 184.838 146.6 184.838C147.046 184.838 147.429 184.694 147.748 184.407C148.067 184.116 148.311 183.687 148.479 183.122C148.648 182.557 148.732 181.867 148.732 181.051C148.732 180.24 148.646 179.549 148.473 178.979C148.304 178.41 148.06 177.979 147.741 177.688C147.422 177.391 147.042 177.241 146.6 177.236C146.153 177.236 145.77 177.387 145.451 177.688C145.132 177.984 144.888 178.421 144.72 179C144.551 179.574 144.467 180.269 144.467 181.085ZM155.24 186.137C154.479 186.137 153.825 185.938 153.278 185.542C152.736 185.141 152.321 184.56 152.034 183.799C151.747 183.038 151.604 182.122 151.604 181.051C151.604 179.984 151.747 179.071 152.034 178.31C152.326 177.549 152.743 176.967 153.285 176.566C153.832 176.165 154.484 175.965 155.24 175.965C155.992 175.965 156.639 176.165 157.182 176.566C157.729 176.967 158.148 177.549 158.439 178.31C158.731 179.071 158.877 179.984 158.877 181.051C158.877 182.122 158.731 183.04 158.439 183.806C158.152 184.567 157.738 185.146 157.195 185.542C156.653 185.938 156.001 186.137 155.24 186.137ZM153.107 181.085C153.107 181.892 153.192 182.575 153.36 183.136C153.529 183.696 153.773 184.12 154.092 184.407C154.411 184.694 154.794 184.838 155.24 184.838C155.687 184.838 156.07 184.694 156.389 184.407C156.708 184.116 156.951 183.687 157.12 183.122C157.289 182.557 157.373 181.867 157.373 181.051C157.373 180.24 157.286 179.549 157.113 178.979C156.945 178.41 156.701 177.979 156.382 177.688C156.063 177.391 155.682 177.241 155.24 177.236C154.794 177.236 154.411 177.387 154.092 177.688C153.773 177.984 153.529 178.421 153.36 179C153.192 179.574 153.107 180.269 153.107 181.085Z" fill="#353535"/>
<rect y="462" width="360" height="406" fill="black"/>
<rect y="462" width="179" height="100" fill="url(#pattern1_14_13596)"/>
<rect y="462" width="179" height="40" fill="url(#paint1_linear_14_13596)" fill-opacity="0.7"/>
<path d="M16.0312 477.168V475.375H14.918V477.168C14.9121 479.09 13.8223 481.105 12.2109 481.879L12.9023 482.781C14.0977 482.16 15.0176 480.9 15.4863 479.412C15.9492 480.812 16.834 481.984 17.9766 482.582L18.668 481.691C17.1035 480.93 16.0195 479.025 16.0312 477.168ZM19.4531 484.996H20.5664V479.629H22.2539V478.68H20.5664V474.496H19.4531V484.996ZM32.3555 480.52H22.7461V481.422H26.9766V484.984H28.0664V481.422H32.3555V480.52ZM23.9531 479.184H31.1484V475.059H23.9531V479.184ZM25.043 478.316V475.949H30.0352V478.316H25.043ZM41.8242 474.496H40.7227V479.898H41.8242V474.496ZM33.1641 478.961L33.7266 479.84C34.9805 479.412 35.918 478.498 36.3926 477.35C36.8672 478.416 37.7871 479.242 39.0117 479.641L39.5625 478.773C37.9512 478.27 36.9434 476.992 36.9492 475.586V474.777H35.8125V475.586C35.8066 477.039 34.8047 478.416 33.1641 478.961ZM34.9336 481.281H40.7344V482.184H34.9688V484.891H42.1875V484H36.0469V483.027H41.8359V480.402H34.9336V481.281ZM49.7461 484.117C51.709 484.117 52.8574 482.535 52.8633 479.758C52.8574 476.998 51.6914 475.398 49.7461 475.398C47.7949 475.398 46.6289 476.998 46.6289 479.758C46.6289 482.535 47.7832 484.117 49.7461 484.117ZM47.918 479.758C47.918 477.648 48.6035 476.494 49.7461 476.488C50.8828 476.494 51.5742 477.648 51.5742 479.758C51.5742 481.873 50.8887 483.004 49.7461 483.004C48.5977 483.004 47.9121 481.873 47.918 479.758ZM57.4219 475.516H56.1562L54.0469 476.898V478.129L56.0742 476.805H56.1211V484H57.4219V475.516Z" fill="white"/>
<g opacity="0.5">
<rect width="179" height="100" transform="translate(0 462)" fill="black"/>
</g>
<g clip-path="url(#clip1_14_13596)">
<path d="M86.4729 519.827C86.5603 519.828 86.647 519.811 86.7273 519.776C86.8077 519.742 86.88 519.691 86.9395 519.627L101.286 505.333L100.34 504.387L86.4729 518.213L78.6195 510.36L77.6729 511.307L86.0062 519.627C86.0667 519.69 86.1391 519.74 86.2193 519.774C86.2994 519.808 86.3857 519.826 86.4729 519.827Z" fill="white"/>
</g>
<rect x="181" y="462" width="179" height="100" fill="url(#pattern2_14_13596)"/>
<rect x="181" y="462" width="179" height="40" fill="url(#paint2_linear_14_13596)" fill-opacity="0.7"/>
<path d="M197.031 477.168V475.375H195.918V477.168C195.912 479.09 194.822 481.105 193.211 481.879L193.902 482.781C195.098 482.16 196.018 480.9 196.486 479.412C196.949 480.812 197.834 481.984 198.977 482.582L199.668 481.691C198.104 480.93 197.02 479.025 197.031 477.168ZM200.453 484.996H201.566V479.629H203.254V478.68H201.566V474.496H200.453V484.996ZM213.355 480.52H203.746V481.422H207.977V484.984H209.066V481.422H213.355V480.52ZM204.953 479.184H212.148V475.059H204.953V479.184ZM206.043 478.316V475.949H211.035V478.316H206.043ZM222.824 474.496H221.723V479.898H222.824V474.496ZM214.164 478.961L214.727 479.84C215.98 479.412 216.918 478.498 217.393 477.35C217.867 478.416 218.787 479.242 220.012 479.641L220.562 478.773C218.951 478.27 217.943 476.992 217.949 475.586V474.777H216.812V475.586C216.807 477.039 215.805 478.416 214.164 478.961ZM215.934 481.281H221.734V482.184H215.969V484.891H223.188V484H217.047V483.027H222.836V480.402H215.934V481.281ZM230.746 484.117C232.709 484.117 233.857 482.535 233.863 479.758C233.857 476.998 232.691 475.398 230.746 475.398C228.795 475.398 227.629 476.998 227.629 479.758C227.629 482.535 228.783 484.117 230.746 484.117ZM228.918 479.758C228.918 477.648 229.604 476.494 230.746 476.488C231.883 476.494 232.574 477.648 232.574 479.758C232.574 481.873 231.889 483.004 230.746 483.004C229.598 483.004 228.912 481.873 228.918 479.758ZM238.422 475.516H237.156L235.047 476.898V478.129L237.074 476.805H237.121V484H238.422V475.516Z" fill="white"/>
<rect y="564" width="179" height="100" fill="url(#pattern3_14_13596)"/>
<rect y="564" width="179" height="40" fill="url(#paint3_linear_14_13596)" fill-opacity="0.7"/>
<path d="M16.0312 579.168V577.375H14.918V579.168C14.9121 581.09 13.8223 583.105 12.2109 583.879L12.9023 584.781C14.0977 584.16 15.0176 582.9 15.4863 581.412C15.9492 582.812 16.834 583.984 17.9766 584.582L18.668 583.691C17.1035 582.93 16.0195 581.025 16.0312 579.168ZM19.4531 586.996H20.5664V581.629H22.2539V580.68H20.5664V576.496H19.4531V586.996ZM32.3555 582.52H22.7461V583.422H26.9766V586.984H28.0664V583.422H32.3555V582.52ZM23.9531 581.184H31.1484V577.059H23.9531V581.184ZM25.043 580.316V577.949H30.0352V580.316H25.043ZM41.8242 576.496H40.7227V581.898H41.8242V576.496ZM33.1641 580.961L33.7266 581.84C34.9805 581.412 35.918 580.498 36.3926 579.35C36.8672 580.416 37.7871 581.242 39.0117 581.641L39.5625 580.773C37.9512 580.27 36.9434 578.992 36.9492 577.586V576.777H35.8125V577.586C35.8066 579.039 34.8047 580.416 33.1641 580.961ZM34.9336 583.281H40.7344V584.184H34.9688V586.891H42.1875V586H36.0469V585.027H41.8359V582.402H34.9336V583.281ZM49.7461 586.117C51.709 586.117 52.8574 584.535 52.8633 581.758C52.8574 578.998 51.6914 577.398 49.7461 577.398C47.7949 577.398 46.6289 578.998 46.6289 581.758C46.6289 584.535 47.7832 586.117 49.7461 586.117ZM47.918 581.758C47.918 579.648 48.6035 578.494 49.7461 578.488C50.8828 578.494 51.5742 579.648 51.5742 581.758C51.5742 583.873 50.8887 585.004 49.7461 585.004C48.5977 585.004 47.9121 583.873 47.918 581.758ZM57.4219 577.516H56.1562L54.0469 578.898V580.129L56.0742 578.805H56.1211V586H57.4219V577.516Z" fill="white"/>
<rect x="181" y="564" width="179" height="100" fill="url(#pattern4_14_13596)"/>
<rect x="181" y="564" width="179" height="40" fill="url(#paint4_linear_14_13596)" fill-opacity="0.7"/>
<path d="M197.031 579.168V577.375H195.918V579.168C195.912 581.09 194.822 583.105 193.211 583.879L193.902 584.781C195.098 584.16 196.018 582.9 196.486 581.412C196.949 582.812 197.834 583.984 198.977 584.582L199.668 583.691C198.104 582.93 197.02 581.025 197.031 579.168ZM200.453 586.996H201.566V581.629H203.254V580.68H201.566V576.496H200.453V586.996ZM213.355 582.52H203.746V583.422H207.977V586.984H209.066V583.422H213.355V582.52ZM204.953 581.184H212.148V577.059H204.953V581.184ZM206.043 580.316V577.949H211.035V580.316H206.043ZM222.824 576.496H221.723V581.898H222.824V576.496ZM214.164 580.961L214.727 581.84C215.98 581.412 216.918 580.498 217.393 579.35C217.867 580.416 218.787 581.242 220.012 581.641L220.562 580.773C218.951 580.27 217.943 578.992 217.949 577.586V576.777H216.812V577.586C216.807 579.039 215.805 580.416 214.164 580.961ZM215.934 583.281H221.734V584.184H215.969V586.891H223.188V586H217.047V585.027H222.836V582.402H215.934V583.281ZM230.746 586.117C232.709 586.117 233.857 584.535 233.863 581.758C233.857 578.998 232.691 577.398 230.746 577.398C228.795 577.398 227.629 578.998 227.629 581.758C227.629 584.535 228.783 586.117 230.746 586.117ZM228.918 581.758C228.918 579.648 229.604 578.494 230.746 578.488C231.883 578.494 232.574 579.648 232.574 581.758C232.574 583.873 231.889 585.004 230.746 585.004C229.598 585.004 228.912 583.873 228.918 581.758ZM238.422 577.516H237.156L235.047 578.898V580.129L237.074 578.805H237.121V586H238.422V577.516Z" fill="white"/>
<rect y="666" width="179" height="100" fill="url(#pattern5_14_13596)"/>
<rect y="666" width="179" height="40" fill="url(#paint5_linear_14_13596)" fill-opacity="0.7"/>
<path d="M16.0312 681.168V679.375H14.918V681.168C14.9121 683.09 13.8223 685.105 12.2109 685.879L12.9023 686.781C14.0977 686.16 15.0176 684.9 15.4863 683.412C15.9492 684.812 16.834 685.984 17.9766 686.582L18.668 685.691C17.1035 684.93 16.0195 683.025 16.0312 681.168ZM19.4531 688.996H20.5664V683.629H22.2539V682.68H20.5664V678.496H19.4531V688.996ZM32.3555 684.52H22.7461V685.422H26.9766V688.984H28.0664V685.422H32.3555V684.52ZM23.9531 683.184H31.1484V679.059H23.9531V683.184ZM25.043 682.316V679.949H30.0352V682.316H25.043ZM41.8242 678.496H40.7227V683.898H41.8242V678.496ZM33.1641 682.961L33.7266 683.84C34.9805 683.412 35.918 682.498 36.3926 681.35C36.8672 682.416 37.7871 683.242 39.0117 683.641L39.5625 682.773C37.9512 682.27 36.9434 680.992 36.9492 679.586V678.777H35.8125V679.586C35.8066 681.039 34.8047 682.416 33.1641 682.961ZM34.9336 685.281H40.7344V686.184H34.9688V688.891H42.1875V688H36.0469V687.027H41.8359V684.402H34.9336V685.281ZM49.7461 688.117C51.709 688.117 52.8574 686.535 52.8633 683.758C52.8574 680.998 51.6914 679.398 49.7461 679.398C47.7949 679.398 46.6289 680.998 46.6289 683.758C46.6289 686.535 47.7832 688.117 49.7461 688.117ZM47.918 683.758C47.918 681.648 48.6035 680.494 49.7461 680.488C50.8828 680.494 51.5742 681.648 51.5742 683.758C51.5742 685.873 50.8887 687.004 49.7461 687.004C48.5977 687.004 47.9121 685.873 47.918 683.758ZM57.4219 679.516H56.1562L54.0469 680.898V682.129L56.0742 680.805H56.1211V688H57.4219V679.516Z" fill="white"/>
<rect x="181" y="666" width="179" height="100" fill="url(#pattern6_14_13596)"/>
<rect x="181" y="666" width="179" height="40" fill="url(#paint6_linear_14_13596)" fill-opacity="0.7"/>
<path d="M197.031 681.168V679.375H195.918V681.168C195.912 683.09 194.822 685.105 193.211 685.879L193.902 686.781C195.098 686.16 196.018 684.9 196.486 683.412C196.949 684.812 197.834 685.984 198.977 686.582L199.668 685.691C198.104 684.93 197.02 683.025 197.031 681.168ZM200.453 688.996H201.566V683.629H203.254V682.68H201.566V678.496H200.453V688.996ZM213.355 684.52H203.746V685.422H207.977V688.984H209.066V685.422H213.355V684.52ZM204.953 683.184H212.148V679.059H204.953V683.184ZM206.043 682.316V679.949H211.035V682.316H206.043ZM222.824 678.496H221.723V683.898H222.824V678.496ZM214.164 682.961L214.727 683.84C215.98 683.412 216.918 682.498 217.393 681.35C217.867 682.416 218.787 683.242 220.012 683.641L220.562 682.773C218.951 682.27 217.943 680.992 217.949 679.586V678.777H216.812V679.586C216.807 681.039 215.805 682.416 214.164 682.961ZM215.934 685.281H221.734V686.184H215.969V688.891H223.188V688H217.047V687.027H222.836V684.402H215.934V685.281ZM230.746 688.117C232.709 688.117 233.857 686.535 233.863 683.758C233.857 680.998 232.691 679.398 230.746 679.398C228.795 679.398 227.629 680.998 227.629 683.758C227.629 686.535 228.783 688.117 230.746 688.117ZM228.918 683.758C228.918 681.648 229.604 680.494 230.746 680.488C231.883 680.494 232.574 681.648 232.574 683.758C232.574 685.873 231.889 687.004 230.746 687.004C229.598 687.004 228.912 685.873 228.918 683.758ZM238.422 679.516H237.156L235.047 680.898V682.129L237.074 680.805H237.121V688H238.422V679.516Z" fill="white"/>
<path d="M0 768H179V868H0V768Z" fill="#B6B6B6"/>
<path d="M98.6761 824.811H82.3916V826.825H98.6761V824.811Z" fill="white" fill-opacity="0.3"/>
<path d="M90.5264 816.411C93.407 821.142 98.2081 821.743 98.2081 821.743V819.589C93.5631 818.254 91.8223 814.218 91.8223 811.251V808.909H89.2383V811.251C89.2383 814.218 87.4974 818.262 82.8525 819.589V821.743C82.8525 821.743 87.6458 821.142 90.5342 816.411H90.5264Z" fill="white" fill-opacity="0.3"/>
<path d="M79.6682 808.456H77.3809V827.754H79.6682V808.456Z" fill="white" fill-opacity="0.3"/>
<path d="M73.9218 814.866H72.6961C72.3136 810.705 70.4244 808.792 68.1371 808.792C65.5765 808.792 63.5 811.189 63.5 816.458C63.5 821.728 65.5765 824.124 68.1371 824.124C70.6977 824.124 72.6493 821.861 72.7586 816.888H73.9218V827.762H76.2013V808.464H73.9218V814.874V814.866ZM68.1371 821.736C66.8412 821.736 65.7951 820.541 65.7951 816.466C65.7951 812.391 66.8412 811.197 68.1371 811.197C69.433 811.197 70.4791 812.415 70.4791 816.466C70.4791 820.518 69.433 821.736 68.1371 821.736Z" fill="white" fill-opacity="0.3"/>
<path d="M104.43 825.709V820.736H101.947V827.755H115.499V825.709H104.43Z" fill="white" fill-opacity="0.3"/>
<path d="M106.521 816.576C109.355 816.576 111.65 815.178 111.65 812.407C111.65 809.636 109.355 808.238 106.521 808.238C103.688 808.238 101.393 809.675 101.393 812.407C101.393 815.139 103.688 816.576 106.521 816.576ZM106.521 810.159C108.005 810.159 109.199 811.119 109.199 812.438C109.199 813.758 107.997 814.718 106.521 814.718C105.046 814.718 103.844 813.75 103.844 812.438C103.844 811.127 105.046 810.159 106.521 810.159Z" fill="white" fill-opacity="0.3"/>
<path d="M112.174 817.176H100.729V819.065H105.304V823.102H107.755V819.065H112.174V817.176Z" fill="white" fill-opacity="0.3"/>
<path d="M112.916 808.457V820.003H109.161V822.001H112.916V824.164H115.211V808.457H112.916Z" fill="white" fill-opacity="0.3"/>
<path d="M181 768H360V868H181V768Z" fill="#B6B6B6"/>
<path d="M256.609 827.926H255.311V836.895H256.609V827.926ZM246.52 834.133L247.217 835.158C248.652 834.604 249.712 833.47 250.252 832.048C250.799 833.374 251.845 834.413 253.26 834.939L253.93 833.9C252.036 833.244 250.901 831.604 250.908 829.812V828.596H249.582V829.812C249.575 831.658 248.44 833.422 246.52 834.133ZM248.598 839.902H256.979V838.85H249.91V836.047H248.598V839.902Z" fill="white" fill-opacity="0.5"/>
<path d="M197.031 783.168C197.027 783.781 197.137 784.389 197.359 784.99C197.582 785.592 197.895 786.131 198.297 786.607C198.699 787.08 199.156 787.441 199.668 787.691L198.977 788.582C198.414 788.285 197.916 787.861 197.482 787.311C197.053 786.756 196.721 786.123 196.486 785.412C196.248 786.17 195.904 786.846 195.455 787.439C195.01 788.029 194.492 788.477 193.902 788.781L193.211 787.879C193.738 787.625 194.207 787.25 194.617 786.754C195.027 786.258 195.346 785.695 195.572 785.066C195.803 784.438 195.918 783.805 195.918 783.168V781.375H197.031V783.168ZM200.453 780.496H201.566V784.68H203.254V785.629H201.566V790.996H200.453V780.496ZM213.355 787.422H209.066V790.984H207.977V787.422H203.746V786.52H213.355V787.422ZM204.953 781.059H212.148V785.184H204.953V781.059ZM211.035 784.316V781.949H206.043V784.316H211.035ZM222.824 785.898H221.723V780.496H222.824V785.898ZM214.164 784.961C214.699 784.781 215.166 784.52 215.564 784.176C215.967 783.832 216.273 783.436 216.484 782.986C216.699 782.537 216.809 782.07 216.812 781.586V780.777H217.949V781.586C217.949 782.051 218.055 782.496 218.266 782.922C218.477 783.348 218.779 783.723 219.174 784.047C219.568 784.367 220.031 784.609 220.562 784.773L220.012 785.641C219.402 785.441 218.873 785.145 218.424 784.75C217.975 784.355 217.631 783.889 217.393 783.35C217.15 783.932 216.799 784.439 216.338 784.873C215.881 785.307 215.344 785.629 214.727 785.84L214.164 784.961ZM215.934 786.402H222.836V789.027H217.047V790H223.188V790.891H215.969V788.184H221.734V787.281H215.934V786.402ZM230.746 790.117C230.094 790.117 229.533 789.947 229.064 789.607C228.6 789.264 228.244 788.766 227.998 788.113C227.752 787.461 227.629 786.676 227.629 785.758C227.629 784.844 227.752 784.061 227.998 783.408C228.248 782.756 228.605 782.258 229.07 781.914C229.539 781.57 230.098 781.398 230.746 781.398C231.391 781.398 231.945 781.57 232.41 781.914C232.879 782.258 233.238 782.756 233.488 783.408C233.738 784.061 233.863 784.844 233.863 785.758C233.863 786.676 233.738 787.463 233.488 788.119C233.242 788.771 232.887 789.268 232.422 789.607C231.957 789.947 231.398 790.117 230.746 790.117ZM228.918 785.787C228.918 786.479 228.99 787.064 229.135 787.545C229.279 788.025 229.488 788.389 229.762 788.635C230.035 788.881 230.363 789.004 230.746 789.004C231.129 789.004 231.457 788.881 231.73 788.635C232.004 788.385 232.213 788.018 232.357 787.533C232.502 787.049 232.574 786.457 232.574 785.758C232.574 785.062 232.5 784.471 232.352 783.982C232.207 783.494 231.998 783.125 231.725 782.875C231.451 782.621 231.125 782.492 230.746 782.488C230.363 782.488 230.035 782.617 229.762 782.875C229.488 783.129 229.279 783.504 229.135 784C228.99 784.492 228.918 785.088 228.918 785.787ZM238.422 790H237.121V782.805H237.074L235.047 784.129V782.898L237.156 781.516H238.422V790Z" fill="white" fill-opacity="0.5"/>
<rect width="360" height="158" fill="white"/>
<!-- 상태바(시간·신호·와이파이·배터리)는 시안과 동일한 컴포넌트로 대체하므로 제거됨 -->
<path d="M25.7832 66.1758C28.6836 66.1758 30.7754 64.6465 30.7754 62.5723C30.7754 60.9727 29.5273 59.6719 27.9805 59.4258V59.3379C29.3164 59.0742 30.292 57.9229 30.3008 56.5254C30.292 54.5479 28.3848 53.0977 25.7832 53.0977C23.1816 53.0977 21.2744 54.5479 21.2832 56.5254C21.2744 57.9229 22.2236 59.0742 23.6035 59.3379V59.4258C22.0215 59.6719 20.791 60.9727 20.791 62.5723C20.791 64.6465 22.874 66.1758 25.7832 66.1758ZM23.5508 62.3086C23.542 61.2012 24.4912 60.4014 25.7832 60.3926C27.0752 60.4014 28.0244 61.21 28.0156 62.3086C28.0244 63.3984 27.1279 64.1631 25.7832 64.1543C24.4385 64.1631 23.542 63.3984 23.5508 62.3086ZM23.8672 56.7891C23.8584 55.7959 24.6406 55.1016 25.7832 55.1016C26.917 55.1016 27.708 55.7959 27.7168 56.7891C27.708 57.8086 26.8994 58.5205 25.7832 58.5293C24.6582 58.5205 23.8584 57.8086 23.8672 56.7891ZM46.6484 59.4961H32.0586V61.3066H46.6484V59.4961ZM32.6738 57.1582L33.3594 58.8633C36.2861 58.6523 38.3252 57.7998 39.3359 56.5078C40.3379 57.7998 42.377 58.6523 45.3301 58.8633L45.998 57.1582C42.5791 56.9561 40.9443 55.9277 40.6367 54.8203H45.2422V53.0449H40.4434V51.6738H38.2285V53.0449H33.4648V54.8203H38.0264C37.71 55.9277 36.084 56.9561 32.6738 57.1582ZM33.7285 64.8926C33.7285 66.6592 35.8115 67.626 39.3359 67.6172C42.8428 67.626 44.8906 66.6592 44.9082 64.8926C44.8906 63.1436 42.8428 62.1768 39.3359 62.1855C35.8115 62.1768 33.7285 63.1436 33.7285 64.8926ZM36.0137 64.8926C36.0049 64.1719 37.0947 63.8379 39.3359 63.8379C41.5244 63.8379 42.6494 64.1719 42.6582 64.8926C42.6494 65.6309 41.5244 65.9648 39.3359 65.9648C37.0947 65.9648 36.0049 65.6309 36.0137 64.8926ZM57.6523 55.2422V52.8516H55.4023V55.2422C55.4023 58.2129 54.1279 61.2715 51.4121 62.5195L52.8008 64.3301C54.6113 63.4336 55.8418 61.7373 56.5449 59.6719C57.2041 61.5967 58.3643 63.1787 60.0781 64.0312L61.4316 62.2383C58.8652 60.999 57.6436 58.1074 57.6523 55.2422ZM62.1348 67.6172H64.3848V59.6895H66.7402V57.791H64.3848V51.6211H62.1348V67.6172ZM81.9453 60.5684H67.3027V62.3613H73.4727V67.5996H75.6875V62.3613H81.9453V60.5684ZM69.0254 58.8457H80.1875V52.3945H69.0254V58.8457ZM71.2402 57.0879V54.1699H77.9551V57.0879H71.2402ZM96.2539 51.6211H94.0215V59.7246H96.2539V51.6211ZM82.8066 58.002L83.9141 59.7598C85.8213 59.1885 87.1309 57.9668 87.8516 56.4111C88.5811 57.835 89.8467 58.9512 91.6836 59.4785L92.7734 57.7559C90.1543 57 88.9941 55.1455 89.0117 53.2031V51.9727H86.6738V53.2031C86.6738 55.1895 85.4785 57.2021 82.8066 58.002ZM85.5312 62.1504H94.0391V63.082H85.5664V67.5117H96.7109V65.7363H87.7637V64.752H96.2715V60.4102H85.5312V62.1504Z" fill="black"/>
<path d="M114.25 58.375L110 62.625L105.75 58.375" stroke="#262626" stroke-linecap="square"/>
<path d="M30.9102 87.1074H29.8711V74.9531H30.9102V87.1074ZM20.6426 80.2031C20.6426 79.3509 20.7497 78.6081 20.9639 77.9746C21.1826 77.3366 21.488 76.8444 21.8799 76.498C22.2718 76.1517 22.7298 75.9785 23.2539 75.9785C23.7415 75.9785 24.1745 76.1312 24.5527 76.4365C24.931 76.7373 25.2318 77.168 25.4551 77.7285C25.6829 78.2845 25.8197 78.9408 25.8652 79.6973H27.4375V75.2129H28.4629V86.4922H27.4375V80.5859H25.8721C25.8402 81.3652 25.7103 82.0465 25.4824 82.6299C25.2591 83.2087 24.9561 83.653 24.5732 83.9629C24.1904 84.2728 23.7507 84.4277 23.2539 84.4277C22.7298 84.4277 22.2718 84.2568 21.8799 83.915C21.488 83.5687 21.1826 83.0765 20.9639 82.4385C20.7497 81.8005 20.6426 81.0553 20.6426 80.2031ZM21.6543 80.2031C21.6497 80.8548 21.7113 81.4222 21.8389 81.9053C21.971 82.3883 22.1579 82.7598 22.3994 83.0195C22.6455 83.2793 22.9303 83.4069 23.2539 83.4023C23.5775 83.4069 23.86 83.2816 24.1016 83.0264C24.3477 82.7666 24.5368 82.3975 24.6689 81.9189C24.8011 81.4404 24.8672 80.8799 24.8672 80.2373C24.8672 79.5765 24.8011 79.0023 24.6689 78.5146C24.5413 78.027 24.3545 77.651 24.1084 77.3867C23.8669 77.1224 23.582 76.9902 23.2539 76.9902C22.9258 76.9902 22.641 77.1224 22.3994 77.3867C22.1579 77.6465 21.971 78.0179 21.8389 78.501C21.7113 78.984 21.6497 79.5514 21.6543 80.2031ZM38.6484 76.7441C38.6484 77.4095 38.8717 78.0498 39.3184 78.665C39.765 79.2803 40.3346 79.8044 41.0273 80.2373C41.7246 80.6657 42.431 80.946 43.1465 81.0781L42.6543 81.9805C42.0299 81.8346 41.417 81.5977 40.8154 81.2695C40.2184 80.9414 39.6807 80.5358 39.2021 80.0527C38.7236 79.5697 38.3568 79.041 38.1016 78.4668C37.8464 79.041 37.4795 79.5697 37.001 80.0527C36.5225 80.5312 35.9824 80.9368 35.3809 81.2695C34.7839 81.5977 34.1732 81.8346 33.5488 81.9805L33.0566 81.0781C33.7721 80.9414 34.474 80.6589 35.1621 80.2305C35.8548 79.8021 36.4222 79.2803 36.8643 78.665C37.3063 78.0498 37.5273 77.4095 37.5273 76.7441V75.8145H38.6484V76.7441ZM32.5918 84.5645H43.7207V85.4531H32.5918V84.5645ZM54.7129 84.1953H53.6328V82.9375H51.1172V82.1582H53.6328V74.9668H54.7129V84.1953ZM44.623 80.5996C46.25 80.5905 47.6901 80.5654 48.9434 80.5244C50.1966 80.4788 51.3952 80.3854 52.5391 80.2441L52.6074 81.0234C51.6185 81.1784 50.5065 81.2946 49.2715 81.3721V83.7715H48.1914V81.4268C47.3711 81.4587 46.2318 81.4746 44.7734 81.4746L44.623 80.5996ZM45.6074 77.5781C45.6074 77.1589 45.7327 76.7897 45.9834 76.4707C46.234 76.1471 46.5872 75.8988 47.043 75.7256C47.4987 75.5479 48.0228 75.459 48.6152 75.459C49.2031 75.459 49.7249 75.5479 50.1807 75.7256C50.6364 75.8988 50.9896 76.1471 51.2402 76.4707C51.4954 76.7897 51.623 77.1589 51.623 77.5781C51.623 78.0065 51.4954 78.3802 51.2402 78.6992C50.9896 79.0137 50.6364 79.2575 50.1807 79.4307C49.7295 79.5993 49.2077 79.6836 48.6152 79.6836C48.0182 79.6836 47.4919 79.5993 47.0361 79.4307C46.5804 79.2575 46.2272 79.0137 45.9766 78.6992C45.7305 78.3802 45.6074 78.0065 45.6074 77.5781ZM46.373 83.293H47.4531V85.9453H55.0137V86.8477H46.373V83.293ZM46.6328 77.5781C46.6283 77.8379 46.708 78.068 46.8721 78.2686C47.0361 78.4645 47.2686 78.6172 47.5693 78.7266C47.8747 78.8359 48.2233 78.8906 48.6152 78.8906C48.998 78.8906 49.3376 78.8359 49.6338 78.7266C49.9346 78.6172 50.1693 78.4645 50.3379 78.2686C50.5111 78.068 50.5977 77.8379 50.5977 77.5781C50.5977 77.3229 50.5111 77.0973 50.3379 76.9014C50.1693 76.7008 49.9346 76.5459 49.6338 76.4365C49.3376 76.3271 48.998 76.2747 48.6152 76.2793C48.2233 76.2747 47.877 76.3271 47.5762 76.4365C47.2754 76.5459 47.0407 76.7008 46.8721 76.9014C46.708 77.0973 46.6283 77.3229 46.6328 77.5781ZM62.8477 76.9902H68.8633V75.4453H69.9297V80.2988H66.375V81.5977H71.3789V82.4863H60.3047V81.5977H65.3086V80.2988H61.7812V75.4453H62.8477V76.9902ZM61.7402 83.457H62.8203V85.9453H70.1484V86.8477H61.7402V83.457ZM68.8633 79.4375V77.8379H62.8477V79.4375H68.8633ZM76.4785 78.2207C76.4785 78.918 76.6175 79.6152 76.8955 80.3125C77.1781 81.0052 77.5586 81.625 78.0371 82.1719C78.5202 82.7188 79.0488 83.1335 79.623 83.416L78.9668 84.2773C78.2969 83.931 77.6953 83.4183 77.1621 82.7393C76.6335 82.0602 76.2347 81.2969 75.9658 80.4492C75.6969 81.347 75.2913 82.1582 74.749 82.8828C74.2067 83.6029 73.5938 84.1452 72.9102 84.5098L72.2266 83.6484C72.8145 83.3613 73.3499 82.9307 73.833 82.3564C74.3206 81.7822 74.7057 81.1328 74.9883 80.4082C75.2754 79.679 75.4212 78.9499 75.4258 78.2207V76.0059H76.4785V78.2207ZM80.7441 74.9531H81.8105V79.8887H83.8477V80.8184H81.8105V87.1074H80.7441V74.9531ZM90.0684 81.9395C89.9089 81.9395 89.7607 81.8984 89.624 81.8164C89.4919 81.7344 89.3848 81.6273 89.3027 81.4951C89.2253 81.3584 89.1888 81.2103 89.1934 81.0508C89.1888 80.8958 89.2253 80.7523 89.3027 80.6201C89.3848 80.4834 89.4919 80.3763 89.624 80.2988C89.7607 80.2168 89.9089 80.1758 90.0684 80.1758C90.2233 80.1758 90.3669 80.2145 90.499 80.292C90.6357 80.3695 90.7428 80.4743 90.8203 80.6064C90.9023 80.7386 90.9434 80.8822 90.9434 81.0371C90.9434 81.2832 90.859 81.4951 90.6904 81.6729C90.5218 81.846 90.3145 81.9349 90.0684 81.9395ZM105.066 86H103.891L98.5312 78.2891H98.4355V86H97.2051V76.1016H98.3945L103.754 83.8262H103.85V76.1016H105.066V86ZM110.59 86H109.346V77.3867H109.291L106.885 78.9863V77.7422L109.346 76.1016H110.59V86ZM113.215 85.0977L116.592 81.543C117.034 81.069 117.371 80.6885 117.604 80.4014C117.84 80.1097 118.021 79.8294 118.144 79.5605C118.267 79.2917 118.328 79.0091 118.328 78.7129C118.328 78.3802 118.242 78.0885 118.068 77.8379C117.895 77.5827 117.658 77.3844 117.357 77.2432C117.061 77.1019 116.729 77.0312 116.359 77.0312C115.972 77.0312 115.632 77.111 115.341 77.2705C115.049 77.4255 114.824 77.6419 114.664 77.9199C114.509 78.1979 114.432 78.5215 114.432 78.8906H113.27C113.265 78.3164 113.397 77.8083 113.666 77.3662C113.939 76.9242 114.315 76.5801 114.794 76.334C115.272 76.0879 115.808 75.9648 116.4 75.9648C116.988 75.9648 117.515 76.0856 117.979 76.3271C118.449 76.5687 118.816 76.8991 119.08 77.3184C119.344 77.7376 119.477 78.2025 119.477 78.7129C119.472 79.0911 119.401 79.4535 119.265 79.7998C119.132 80.1416 118.905 80.5221 118.581 80.9414C118.257 81.3607 117.799 81.8757 117.207 82.4863L114.938 84.8242V84.9062H119.654V86H113.229L113.215 85.0977ZM124.863 86.1367C124.212 86.1367 123.628 86.0273 123.113 85.8086C122.598 85.5898 122.19 85.2822 121.89 84.8857C121.593 84.4847 121.436 84.0267 121.418 83.5117H122.662C122.685 83.8216 122.794 84.0928 122.99 84.3252C123.186 84.5531 123.446 84.7308 123.77 84.8584C124.093 84.9814 124.453 85.043 124.85 85.043C125.283 85.043 125.67 84.9701 126.012 84.8242C126.354 84.6784 126.62 84.4733 126.812 84.209C127.007 83.9447 127.105 83.6439 127.105 83.3066C127.101 82.9466 127.005 82.6276 126.818 82.3496C126.632 82.0716 126.356 81.8551 125.991 81.7002C125.631 81.5407 125.201 81.4609 124.699 81.4609H123.893V80.3809H124.699C125.096 80.3809 125.449 80.3102 125.759 80.1689C126.069 80.0277 126.308 79.8294 126.477 79.5742C126.65 79.3145 126.736 79.0182 126.736 78.6855C126.736 78.3574 126.661 78.0703 126.511 77.8242C126.36 77.5736 126.146 77.3799 125.868 77.2432C125.59 77.1019 125.264 77.0312 124.891 77.0312C124.535 77.0358 124.2 77.1019 123.886 77.2295C123.576 77.3525 123.323 77.5326 123.127 77.7695C122.936 78.002 122.831 78.2754 122.812 78.5898H121.623C121.641 78.0794 121.799 77.626 122.095 77.2295C122.396 76.8285 122.792 76.5186 123.284 76.2998C123.781 76.0765 124.321 75.9648 124.904 75.9648C125.515 75.9648 126.048 76.0856 126.504 76.3271C126.964 76.5687 127.317 76.8923 127.563 77.2979C127.81 77.7035 127.93 78.1432 127.926 78.6172C127.93 79.1732 127.782 79.6494 127.481 80.0459C127.181 80.4378 126.768 80.709 126.244 80.8594V80.9277C126.668 80.9915 127.035 81.1328 127.345 81.3516C127.659 81.5658 127.898 81.8415 128.062 82.1787C128.227 82.5114 128.309 82.8874 128.309 83.3066C128.309 83.8398 128.158 84.3229 127.857 84.7559C127.561 85.1842 127.151 85.5215 126.627 85.7676C126.103 86.0137 125.515 86.1367 124.863 86.1367ZM129.84 82.9648L134.297 76.1016H135.814V82.8965H137.195V83.9766H135.814V86H134.639V83.9766H129.84V82.9648ZM134.639 82.8965V77.6602H134.516L131.166 82.8145V82.8965H134.639ZM142.049 86.1367C141.461 86.1367 140.925 86.0251 140.442 85.8018C139.964 85.5739 139.581 85.2617 139.294 84.8652C139.011 84.4642 138.859 84.013 138.836 83.5117H140.025C140.053 83.8034 140.16 84.0654 140.347 84.2979C140.534 84.5303 140.775 84.7148 141.071 84.8516C141.372 84.9883 141.698 85.0566 142.049 85.0566C142.473 85.0566 142.851 84.9609 143.184 84.7695C143.521 84.5781 143.785 84.3161 143.977 83.9834C144.168 83.6507 144.264 83.2793 144.264 82.8691C144.264 82.4453 144.163 82.0648 143.963 81.7275C143.767 81.3857 143.493 81.1169 143.143 80.9209C142.796 80.7249 142.404 80.627 141.967 80.627C141.078 80.6133 140.463 80.9095 140.121 81.5156H138.932L139.629 76.1016H144.988V77.1953H140.654L140.285 80.0938H140.381C140.609 79.9206 140.88 79.7816 141.194 79.6768C141.513 79.5719 141.844 79.5195 142.186 79.5195C142.805 79.5195 143.364 79.6631 143.86 79.9502C144.362 80.2327 144.754 80.627 145.036 81.1328C145.323 81.6387 145.467 82.2083 145.467 82.8418C145.467 83.4707 145.319 84.0358 145.022 84.5371C144.726 85.0384 144.318 85.4303 143.799 85.7129C143.284 85.9954 142.701 86.1367 142.049 86.1367ZM150.662 86.1367C150.02 86.1367 149.425 85.9932 148.878 85.7061C148.336 85.4144 147.889 84.9199 147.538 84.2227C147.187 83.5208 147.012 82.5911 147.012 81.4336C147.012 80.276 147.162 79.2894 147.463 78.4736C147.768 77.6533 148.201 77.0312 148.762 76.6074C149.327 76.179 149.997 75.9648 150.771 75.9648C151.341 75.9648 151.854 76.0765 152.31 76.2998C152.765 76.5186 153.137 76.8262 153.424 77.2227C153.715 77.6191 153.902 78.0749 153.984 78.5898H152.768C152.649 78.1296 152.419 77.7604 152.077 77.4824C151.735 77.1999 151.3 77.0586 150.771 77.0586C150.229 77.0586 149.762 77.209 149.37 77.5098C148.983 77.806 148.687 78.2367 148.481 78.8018C148.276 79.3669 148.174 80.0436 148.174 80.832H148.297C148.584 80.4173 148.946 80.096 149.384 79.8682C149.826 79.6357 150.311 79.5195 150.84 79.5195C151.423 79.5195 151.961 79.6608 152.453 79.9434C152.945 80.2259 153.337 80.6178 153.629 81.1191C153.921 81.6159 154.066 82.1764 154.066 82.8008C154.066 83.4206 153.925 83.9834 153.643 84.4893C153.36 84.9951 152.959 85.3962 152.439 85.6924C151.924 85.9886 151.332 86.1367 150.662 86.1367ZM148.338 82.8281C148.338 83.2155 148.436 83.5801 148.632 83.9219C148.832 84.2637 149.106 84.5394 149.452 84.749C149.803 84.9541 150.193 85.0566 150.621 85.0566C151.04 85.0566 151.421 84.9564 151.763 84.7559C152.104 84.5508 152.376 84.2773 152.576 83.9355C152.777 83.5938 152.877 83.2201 152.877 82.8145C152.877 82.4134 152.779 82.0443 152.583 81.707C152.392 81.3698 152.125 81.1009 151.783 80.9004C151.446 80.6999 151.068 80.5996 150.648 80.5996C150.225 80.5996 149.837 80.7044 149.486 80.9141C149.135 81.1191 148.857 81.3926 148.652 81.7344C148.447 82.0762 148.342 82.4408 148.338 82.8281ZM160.615 77.2637V77.1953H155.379V76.1016H161.887V77.25L157.361 86H156.076L160.615 77.2637Z" fill="#BFBFBF"/>
<rect x="20" y="112" width="93" height="30" rx="15" fill="#1D6CEB"/>
<path d="M46.8467 120.912V127.215H45.5615V120.912H46.8467ZM36.7432 126.121C38.6572 125.485 39.8262 123.879 39.833 122.184V121.24H41.1592V122.184C41.1523 123.824 42.3281 125.314 44.208 125.902L43.5654 126.914C42.1367 126.449 41.0635 125.485 40.5098 124.241C39.9561 125.581 38.8623 126.647 37.3994 127.146L36.7432 126.121ZM38.8076 128.828V127.803H46.8604V130.865H40.1064V132H47.2705V133.039H38.8486V129.881H45.5752V128.828H38.8076ZM53.2998 124.029C53.2861 126.265 54.6396 128.521 56.54 129.361L55.7607 130.387C54.3525 129.717 53.2383 128.343 52.6641 126.668C52.0967 128.466 50.9688 129.942 49.499 130.66L48.7061 129.566C50.6338 128.712 51.9873 126.367 51.9873 124.029V121.938H53.2998V124.029ZM57.6475 133.189V120.912H58.9463V133.189H57.6475ZM70.5264 120.912V124.535H72.3037V125.615H70.5264V129.812H69.2139V120.912H70.5264ZM60.8877 127.434C63.7588 126.572 65.5361 124.938 65.7891 122.922H61.4072V121.842H67.2041C67.2041 125.055 65.0166 127.386 61.4346 128.473L60.8877 127.434ZM62.7471 132.902V128.896H64.0596V131.85H71.0322V132.902H62.7471ZM76.3916 121.623C77.4102 121.616 78.2783 121.999 78.8525 122.635H81.915V120.912H83.2139V128.145H81.915V126.49H78.8457C78.2715 127.119 77.4033 127.495 76.3916 127.488C74.5459 127.495 73.1719 126.271 73.1787 124.562C73.1719 122.833 74.5459 121.616 76.3916 121.623ZM74.4229 124.562C74.416 125.636 75.2432 126.395 76.3916 126.381C77.5059 126.395 78.333 125.636 78.333 124.562C78.333 123.462 77.5059 122.73 76.3916 122.744C75.2432 122.73 74.416 123.462 74.4229 124.562ZM74.9697 130.783C74.9629 129.286 76.5488 128.411 79.1123 128.418C81.6621 128.411 83.248 129.286 83.2549 130.783C83.248 132.273 81.6621 133.142 79.1123 133.135C76.5488 133.142 74.9629 132.273 74.9697 130.783ZM76.2412 130.783C76.2344 131.624 77.3145 132.116 79.1123 132.109C80.9102 132.116 81.9834 131.624 81.9834 130.783C81.9834 129.908 80.9102 129.423 79.1123 129.416C77.3145 129.423 76.2344 129.908 76.2412 130.783ZM79.4473 123.674C79.5293 123.947 79.5771 124.248 79.5771 124.562C79.5771 124.863 79.5293 125.157 79.4473 125.424H81.915V123.674H79.4473ZM89.3252 122.867C89.3184 124.474 90.4531 125.971 92.2783 126.572L91.5811 127.598C90.2412 127.126 89.2363 126.169 88.7031 124.959C88.1699 126.333 87.1309 127.413 85.7021 127.939L85.0049 126.9C86.9189 126.224 88.0264 124.59 88.04 122.758V121.555H89.3252V122.867ZM86.6592 130.865C86.6592 129.43 88.2246 128.589 90.7744 128.596C93.29 128.589 94.835 129.43 94.835 130.865C94.835 132.314 93.29 133.142 90.7744 133.135C88.2246 133.142 86.6592 132.314 86.6592 130.865ZM87.958 130.865C87.9512 131.672 89.0039 132.109 90.7744 132.123C92.5312 132.109 93.5703 131.672 93.5635 130.865C93.5703 130.086 92.5312 129.621 90.7744 129.621C89.0039 129.621 87.9512 130.086 87.958 130.865ZM93.4268 128.309V120.912H94.7256V123.988H96.5029V125.082H94.7256V128.309H93.4268Z" fill="white"/>
<rect x="117" y="112" width="81" height="30" rx="15" fill="#F2F2F2"/>
<path d="M143.664 124.234V125.287H139.986V126.832H144.936V127.871H133.752V126.832H138.688V125.287H135.229V121.158H136.514V124.234H143.664ZM135.037 130.086V129.033H143.555V133.162H142.242V130.086H135.037ZM155.449 120.912V126.039H157.295V127.133H155.449V133.162H154.15V120.912H155.449ZM145.701 129.826C146.665 129.826 147.786 129.826 148.955 129.792V128.548C147.574 128.343 146.672 127.509 146.686 126.326C146.672 124.945 147.868 124.036 149.611 124.029C151.348 124.036 152.558 124.945 152.564 126.326C152.558 127.509 151.642 128.35 150.254 128.548V129.744C151.341 129.689 152.435 129.601 153.453 129.457L153.535 130.414C150.883 130.886 148.019 130.913 145.906 130.906L145.701 129.826ZM145.934 123.4V122.361H148.955V120.939H150.254V122.361H153.275V123.4H145.934ZM147.902 126.326C147.902 127.105 148.586 127.591 149.611 127.584C150.637 127.591 151.313 127.105 151.32 126.326C151.313 125.54 150.637 125.041 149.611 125.041C148.586 125.041 147.902 125.54 147.902 126.326ZM161.342 121.623C162.36 121.616 163.229 121.999 163.803 122.635H166.865V120.912H168.164V128.145H166.865V126.49H163.796C163.222 127.119 162.354 127.495 161.342 127.488C159.496 127.495 158.122 126.271 158.129 124.562C158.122 122.833 159.496 121.616 161.342 121.623ZM159.373 124.562C159.366 125.636 160.193 126.395 161.342 126.381C162.456 126.395 163.283 125.636 163.283 124.562C163.283 123.462 162.456 122.73 161.342 122.744C160.193 122.73 159.366 123.462 159.373 124.562ZM159.92 130.783C159.913 129.286 161.499 128.411 164.062 128.418C166.612 128.411 168.198 129.286 168.205 130.783C168.198 132.273 166.612 133.142 164.062 133.135C161.499 133.142 159.913 132.273 159.92 130.783ZM161.191 130.783C161.185 131.624 162.265 132.116 164.062 132.109C165.86 132.116 166.934 131.624 166.934 130.783C166.934 129.908 165.86 129.423 164.062 129.416C162.265 129.423 161.185 129.908 161.191 130.783ZM164.397 123.674C164.479 123.947 164.527 124.248 164.527 124.562C164.527 124.863 164.479 125.157 164.397 125.424H166.865V123.674H164.397ZM174.275 122.867C174.269 124.474 175.403 125.971 177.229 126.572L176.531 127.598C175.191 127.126 174.187 126.169 173.653 124.959C173.12 126.333 172.081 127.413 170.652 127.939L169.955 126.9C171.869 126.224 172.977 124.59 172.99 122.758V121.555H174.275V122.867ZM171.609 130.865C171.609 129.43 173.175 128.589 175.725 128.596C178.24 128.589 179.785 129.43 179.785 130.865C179.785 132.314 178.24 133.142 175.725 133.135C173.175 133.142 171.609 132.314 171.609 130.865ZM172.908 130.865C172.901 131.672 173.954 132.109 175.725 132.123C177.481 132.109 178.521 131.672 178.514 130.865C178.521 130.086 177.481 129.621 175.725 129.621C173.954 129.621 172.901 130.086 172.908 130.865ZM178.377 128.309V120.912H179.676V123.988H181.453V125.082H179.676V128.309H178.377Z" fill="#7F7F7F"/>
<rect y="887" width="360" height="1" fill="#F2F2F2"/>
<rect width="90" height="60" transform="translate(0 888)" fill="white"/>
<g clip-path="url(#clip3_14_13596)">
<path d="M34.0536 909.453L37.0003 907.373V921.08H53.0003V907.373L55.9469 909.453L56.7203 908.373L45.3869 900.373C45.2757 900.289 45.1399 900.243 45.0003 900.243C44.8607 900.243 44.7249 900.289 44.6136 900.373L33.2803 908.373L34.0536 909.453Z" fill="#C4C4C4"/>
</g>
<path d="M48.6035 935.832H41.3496V938.867H48.6035V935.832ZM40.2012 935.117H49.7754V934.238H45.5449V933.523C47.4082 933.447 48.4336 932.949 48.4277 932.047C48.4336 931.068 47.1973 930.564 44.9824 930.559C42.7793 930.564 41.5312 931.068 41.5371 932.047C41.5312 932.949 42.5742 933.447 44.4316 933.523V934.238H40.2012V935.117ZM40.6934 930.184H49.2363V929.328H45.5449V928.355H44.4316V929.328H40.6934V930.184ZM42.4512 938.012V936.688H47.5254V938.012H42.4512ZM42.7207 932.047C42.7148 931.566 43.5176 931.332 44.9824 931.32C46.459 931.332 47.2441 931.566 47.2441 932.047C47.2441 932.521 46.459 932.773 44.9824 932.773C43.5176 932.773 42.7148 932.521 42.7207 932.047Z" fill="#7F7F7F"/>
<rect width="90" height="60" transform="translate(90 888)" fill="white"/>
<g clip-path="url(#clip4_14_13596)">
<path d="M127.8 916.253C129.333 919.127 131.91 921.303 135 922.333C138.09 921.303 140.667 919.127 142.2 916.253C142.825 915.059 143.189 913.746 143.266 912.4L143.666 903.2C140.643 902.384 137.732 901.198 135 899.667C132.268 901.198 129.357 902.384 126.333 903.2L126.733 912.4C126.811 913.746 127.174 915.059 127.8 916.253ZM130.466 909.093L134.04 912.693L139.586 907L140.533 907.933L134.453 914.093C134.321 914.212 134.151 914.279 133.973 914.28C133.799 914.281 133.632 914.214 133.506 914.093L129.506 910.013L130.466 909.093Z" fill="#C4C4C4"/>
</g>
<path d="M134.02 928.508H132.906V930.371H130.627C130.697 930.02 130.738 929.645 130.738 929.258H125.934V930.172H129.531C129.332 931.865 127.879 933.201 125.395 933.91L125.84 934.777C128.113 934.127 129.689 932.938 130.369 931.25H132.906V932.527H130.258V933.441H132.906V934.719H134.02V928.508ZM127.023 936.887C127.023 938.164 128.406 938.949 130.562 938.949C132.689 938.949 134.084 938.164 134.09 936.887C134.084 935.615 132.689 934.842 130.562 934.836C128.406 934.842 127.023 935.615 127.023 936.887ZM128.125 936.887C128.125 936.137 129.062 935.709 130.562 935.715C132.033 935.709 132.971 936.137 132.977 936.887C132.971 937.625 132.033 938.053 130.562 938.059C129.062 938.053 128.125 937.625 128.125 936.887ZM143.832 928.496H142.719V939.02H143.832V928.496ZM135.723 936.5H140.762V929.375H139.66V932.07H136.836V929.375H135.723V936.5ZM136.836 935.586V932.949H139.66V935.586H136.836Z" fill="#7F7F7F"/>
<rect width="90" height="60" transform="translate(180 888)" fill="white"/>
<g clip-path="url(#clip5_14_13596)">
<path d="M225 916.107C226.355 916.107 227.454 915.008 227.454 913.654C227.454 912.299 226.355 911.2 225 911.2C223.645 911.2 222.547 912.299 222.547 913.654C222.547 915.008 223.645 916.107 225 916.107Z" fill="#1D6CEB"/>
<path d="M215.667 911.08C215.667 913.555 216.65 915.929 218.401 917.679C220.151 919.43 222.525 920.413 225 920.413C227.476 920.413 229.85 919.43 231.6 917.679C233.35 915.929 234.334 913.555 234.334 911.08V907.76H215.667V911.08ZM225 909.866C225.749 909.866 226.48 910.088 227.103 910.504C227.725 910.919 228.21 911.51 228.497 912.201C228.784 912.892 228.86 913.653 228.715 914.387C228.57 915.121 228.211 915.796 227.683 916.326C227.154 916.856 226.481 917.218 225.747 917.365C225.014 917.513 224.253 917.44 223.56 917.155C222.868 916.871 222.276 916.388 221.858 915.767C221.441 915.146 221.216 914.415 221.214 913.666C221.212 913.168 221.309 912.674 221.498 912.213C221.688 911.752 221.966 911.333 222.318 910.98C222.67 910.627 223.088 910.347 223.548 910.156C224.008 909.965 224.502 909.866 225 909.866Z" fill="#1D6CEB"/>
<path d="M216.334 906.507H233.667C234.374 906.507 235.053 906.226 235.553 905.726C236.053 905.225 236.334 904.547 236.334 903.84V901.787H213.667V903.84C213.667 904.19 213.736 904.537 213.87 904.86C214.004 905.184 214.2 905.478 214.448 905.726C214.948 906.226 215.626 906.507 216.334 906.507Z" fill="#1D6CEB"/>
</g>
<path d="M218.172 929.105C216.59 929.1 215.412 930.143 215.418 931.625C215.412 933.09 216.59 934.139 218.172 934.133C219.039 934.139 219.783 933.816 220.275 933.277H222.906V934.695H224.02V928.496H222.906V929.973H220.281C219.789 929.428 219.045 929.1 218.172 929.105ZM216.484 931.625C216.479 930.682 217.188 930.055 218.172 930.066C219.127 930.055 219.836 930.682 219.836 931.625C219.836 932.545 219.127 933.195 218.172 933.184C217.188 933.195 216.479 932.545 216.484 931.625ZM216.953 936.957C216.947 938.234 218.307 938.979 220.504 938.973C222.689 938.979 224.049 938.234 224.055 936.957C224.049 935.674 222.689 934.924 220.504 934.93C218.307 934.924 216.947 935.674 216.953 936.957ZM218.043 936.957C218.037 936.207 218.963 935.791 220.504 935.785C222.045 935.791 222.965 936.207 222.965 936.957C222.965 937.678 222.045 938.1 220.504 938.094C218.963 938.1 218.037 937.678 218.043 936.957ZM220.791 930.863H222.906V932.363H220.791C220.861 932.135 220.902 931.883 220.902 931.625C220.902 931.355 220.861 931.098 220.791 930.863ZM228.758 930.172V929.047H227.656V930.078C227.645 931.648 226.695 933.049 225.055 933.629L225.652 934.52C226.877 934.068 227.768 933.143 228.225 931.965C228.682 933.002 229.543 933.822 230.691 934.227L231.289 933.348C229.725 932.832 228.752 931.549 228.758 930.172ZM226.473 937.027C226.473 938.27 227.814 938.979 230 938.973C232.156 938.979 233.48 938.27 233.48 937.027C233.48 935.797 232.156 935.076 230 935.082C227.814 935.076 226.473 935.797 226.473 937.027ZM227.586 937.027C227.58 936.359 228.482 935.961 230 935.961C231.506 935.961 232.396 936.359 232.391 937.027C232.396 937.719 231.506 938.094 230 938.105C228.482 938.094 227.58 937.719 227.586 937.027ZM232.273 934.836H233.387V932.07H234.91V931.133H233.387V928.496H232.273V934.836Z" fill="#1D6CEB"/>
<rect width="90" height="60" transform="translate(270 888)" fill="white"/>
<g clip-path="url(#clip6_14_13596)">
<path d="M326.334 903.653V902.987H303.667V904.32H326.334V903.653Z" fill="#C4C4C4"/>
<path d="M326.334 910.973V910.307H303.667V911.64H326.334V910.973Z" fill="#C4C4C4"/>
<path d="M326.334 918.307V917.64H303.667V918.973H326.334V918.307Z" fill="#C4C4C4"/>
</g>
<path d="M314.02 928.508H312.906V931.344H310.902V932.246H312.906V936.195H314.02V928.508ZM305.277 934.004L305.852 934.906C307.1 934.461 308.02 933.535 308.477 932.375C308.934 933.418 309.807 934.262 310.984 934.672L311.559 933.781C309.971 933.254 309.021 931.936 309.027 930.629V930.219H311.277V929.305H305.617V930.219H307.891V930.629C307.896 932.076 306.889 933.459 305.277 934.004ZM307.199 938.773H314.301V937.871H308.312V935.504H307.199V938.773ZM318.277 931.719V931.297H320.141V930.383H318.277V928.871H317.234V930.383H315.336V931.297H317.234V931.719C317.223 933.412 316.473 935.211 315.02 936.055L315.676 936.898C316.689 936.289 317.393 935.193 317.768 933.922C318.148 935.111 318.852 936.113 319.871 936.652L320.492 935.832C319.045 935.053 318.277 933.371 318.277 931.719ZM319.449 933.512H320.961V938.469H322.016V928.719H320.961V932.586H319.449V933.512ZM323.082 938.996H324.148V928.496H323.082V938.996Z" fill="#7F7F7F"/>
<!-- 하단 안드로이드 네비는 시안과 동일한 AndroidNav 컴포넌트로 대체하므로 제거됨 -->
<path d="M27.8438 434.578H21.25V436.172H25.8516C25.8047 436.844 25.7031 437.484 25.5547 438.086L20.5 438.391L20.75 440.094L24.9531 439.703C24.1484 441.281 22.7344 442.602 20.3594 443.781L21.4531 445.281C26.7656 442.617 27.8281 438.969 27.8438 434.578ZM29.6406 447.406H31.6406V440.312H33.6562V438.672H31.6406V433.219H29.6406V447.406ZM40.3125 434.688H34.6562V443.859H40.3125V439.984H41.7344V446.781H43.6094V433.422H41.7344V438.391H40.3125V434.688ZM36.5156 442.297V436.266H38.4531V442.297H36.5156ZM44.6719 447.438H46.5781V433.219H44.6719V447.438ZM59.2969 433.219H57.3281V447.469H59.2969V440.234H61.3906V438.594H59.2969V433.219ZM48.6562 436.016H53.25V438.344H48.6719V444.156H49.875C52.375 444.156 54.3281 444.07 56.5 443.672L56.3281 442.078C54.4375 442.398 52.7266 442.492 50.6562 442.5V439.922H55.2344V434.406H48.6562V436.016ZM76.9219 433.781H67.2031V438.781H71.0625V440.141H65.5938V441.75H78.5625V440.141H73.0625V438.781H76.9219V433.781ZM67.0312 444.359H75V447.438H76.9844V442.797H67.0312V444.359ZM92.4219 440.844H86.9062V439.812H91.1094V438.281H83.0156V437.344H90.8438V433.484H81V435.031H88.8438V435.906H81.0312V439.812H84.9219V440.844H79.4062V442.438H92.4219V440.844ZM80.8594 444.812H88.9062V447.375H90.9219V443.25H80.8594V444.812Z" fill="#353535"/>
<defs>
<pattern id="pattern0_14_13596" patternContentUnits="objectBoundingBox" width="1" height="1"><rect width="1" height="1" fill="#F2F2F2"/></pattern>
<pattern id="pattern1_14_13596" patternContentUnits="objectBoundingBox" width="1" height="1"><rect width="1" height="1" fill="#111"/></pattern>
<pattern id="pattern2_14_13596" patternContentUnits="objectBoundingBox" width="1" height="1"><rect width="1" height="1" fill="#111"/></pattern>
<pattern id="pattern3_14_13596" patternContentUnits="objectBoundingBox" width="1" height="1"><rect width="1" height="1" fill="#111"/></pattern>
<pattern id="pattern4_14_13596" patternContentUnits="objectBoundingBox" width="1" height="1"><rect width="1" height="1" fill="#111"/></pattern>
<pattern id="pattern5_14_13596" patternContentUnits="objectBoundingBox" width="1" height="1"><rect width="1" height="1" fill="#111"/></pattern>
<pattern id="pattern6_14_13596" patternContentUnits="objectBoundingBox" width="1" height="1"><rect width="1" height="1" fill="#111"/></pattern>
<linearGradient id="paint0_linear_14_13596" x1="180" y1="204" x2="180" y2="244" gradientUnits="userSpaceOnUse">
<stop/>
<stop offset="1" stop-opacity="0"/>
</linearGradient>
<linearGradient id="paint1_linear_14_13596" x1="89.5" y1="462" x2="89.5" y2="502" gradientUnits="userSpaceOnUse">
<stop/>
<stop offset="1" stop-opacity="0"/>
</linearGradient>
<linearGradient id="paint2_linear_14_13596" x1="270.5" y1="462" x2="270.5" y2="502" gradientUnits="userSpaceOnUse">
<stop/>
<stop offset="1" stop-opacity="0"/>
</linearGradient>
<linearGradient id="paint3_linear_14_13596" x1="89.5" y1="564" x2="89.5" y2="604" gradientUnits="userSpaceOnUse">
<stop/>
<stop offset="1" stop-opacity="0"/>
</linearGradient>
<linearGradient id="paint4_linear_14_13596" x1="270.5" y1="564" x2="270.5" y2="604" gradientUnits="userSpaceOnUse">
<stop/>
<stop offset="1" stop-opacity="0"/>
</linearGradient>
<linearGradient id="paint5_linear_14_13596" x1="89.5" y1="666" x2="89.5" y2="706" gradientUnits="userSpaceOnUse">
<stop/>
<stop offset="1" stop-opacity="0"/>
</linearGradient>
<linearGradient id="paint6_linear_14_13596" x1="270.5" y1="666" x2="270.5" y2="706" gradientUnits="userSpaceOnUse">
<stop/>
<stop offset="1" stop-opacity="0"/>
</linearGradient>
<clipPath id="clip0_14_13596">
<path d="M0 204H360V406H0V204Z" fill="white"/>
</clipPath>
<clipPath id="clip1_14_13596">
<rect width="32" height="32" fill="white" transform="translate(73.5 496)"/>
</clipPath>
<clipPath id="clip3_14_13596">
<rect width="32" height="32" fill="white" transform="translate(29 895)"/>
</clipPath>
<clipPath id="clip4_14_13596">
<rect width="32" height="32" fill="white" transform="translate(119 895)"/>
</clipPath>
<clipPath id="clip5_14_13596">
<rect width="32" height="32" fill="white" transform="translate(209 895)"/>
</clipPath>
<clipPath id="clip6_14_13596">
<rect width="32" height="32" fill="white" transform="translate(299 895)"/>
</clipPath>
</defs>
</svg>
