<svg width="85" height="60" viewBox="0 0 85 60" fill="none" xmlns="http://www.w3.org/2000/svg">
<path d="M40.5996 16.8857H23.0996V28.1264H40.5996V16.8857Z" fill="#F2F2F2"/>
<path d="M61.8496 16.8857H44.3496V28.1264H61.8496V16.8857Z" fill="#F2F2F2"/>
<path d="M19.4 16.8857H0V28.1264H19.4V16.8857Z" fill="#F2F2F2"/>
<path d="M61.8496 31.873H44.3496V43.1137H61.8496V31.873Z" fill="#F2F2F2"/>
<path d="M40.5996 31.873H23.0996V43.1137H40.5996V31.873Z" fill="#F2F2F2"/>
<path d="M19.4 31.873H0V43.1137H19.4V31.873Z" fill="#F2F2F2"/>
<path d="M40.5996 0H23.0996V13.0891H40.5996V0Z" fill="#F2F2F2"/>
<path d="M61.8496 0H44.3496V13.0891H61.8496V0Z" fill="#F2F2F2"/>
<path d="M19.4 0H0V13.0891H19.4V0Z" fill="#F2F2F2"/>
<path d="M84.9996 0H65.5996V13.0891H84.9996V0Z" fill="#F2F2F2"/>
<path d="M84.9996 31.873H65.5996V43.1137H84.9996V31.873Z" fill="#F2F2F2"/>
<path d="M84.9996 16.8857H65.5996V28.1264H84.9996V16.8857Z" fill="#F2F2F2"/>
<path d="M40.5996 46.8613H23.0996V60.0004H40.5996V46.8613Z" fill="#F2F2F2"/>
<path d="M19.4 46.8613H0V60.0004H19.4V46.8613Z" fill="#F2F2F2"/>
<path d="M84.9996 46.8613H65.5996V60.0004H84.9996V46.8613Z" fill="#F2F2F2"/>
<path d="M61.8496 46.8613H44.3496V60.0004H61.8496V46.8613Z" fill="#F2F2F2"/>
</svg>
