<svg width="24" height="24" viewBox="0 0 24 24" fill="none" xmlns="http://www.w3.org/2000/svg">
<g clip-path="url(#clip0_2502_11488)">
<path d="M3.50094 19H20.5009C20.6335 19 20.7607 18.9473 20.8545 18.8536C20.9483 18.7598 21.0009 18.6326 21.0009 18.5V7.5C21.0009 7.36739 20.9483 7.24021 20.8545 7.14645C20.7607 7.05268 20.6335 7 20.5009 7H15.7809L14.0009 5.17C13.9524 5.11748 13.8936 5.07535 13.8283 5.04613C13.763 5.01691 13.6925 5.00122 13.6209 5H10.6209C10.4893 5.00294 10.3639 5.05669 10.2709 5.15L8.46094 7H3.46094C3.32833 7 3.20115 7.05268 3.10739 7.14645C3.01362 7.24021 2.96094 7.36739 2.96094 7.5V18.5C2.96072 18.5692 2.97485 18.6376 3.00244 18.7011C3.03003 18.7645 3.07048 18.8215 3.12123 18.8685C3.17199 18.9155 3.23194 18.9514 3.29729 18.9741C3.36265 18.9967 3.43199 19.0055 3.50094 19V19ZM4.00094 8H8.67094C8.79839 7.9868 8.9162 7.92611 9.00094 7.83L10.8309 6H13.4209L15.2209 7.81C15.3175 7.90394 15.4462 7.95757 15.5809 7.96H20.0009V18H4.00094V8Z" fill="#353535"/>
<path d="M12 8.46094C11.2089 8.46094 10.4355 8.69553 9.77772 9.13506C9.11993 9.57458 8.60723 10.1993 8.30448 10.9302C8.00173 11.6611 7.92252 12.4654 8.07686 13.2413C8.2312 14.0172 8.61216 14.73 9.17157 15.2894C9.73098 15.8488 10.4437 16.2297 11.2196 16.3841C11.9956 16.5384 12.7998 16.4592 13.5307 16.1565C14.2616 15.8537 14.8864 15.341 15.3259 14.6832C15.7654 14.0254 16 13.2521 16 12.4609C16 11.4001 15.5786 10.3827 14.8284 9.63251C14.0783 8.88236 13.0609 8.46094 12 8.46094V8.46094ZM12 15.4609C11.4067 15.4609 10.8266 15.285 10.3333 14.9553C9.83994 14.6257 9.45543 14.1572 9.22836 13.609C9.0013 13.0608 8.94189 12.4576 9.05765 11.8757C9.1734 11.2937 9.45912 10.7592 9.87868 10.3396C10.2982 9.92006 10.8328 9.63434 11.4147 9.51858C11.9967 9.40283 12.5999 9.46224 13.1481 9.6893C13.6962 9.91636 14.1648 10.3009 14.4944 10.7942C14.8241 11.2876 15 11.8676 15 12.4609C15 13.2566 14.6839 14.0196 14.1213 14.5823C13.5587 15.1449 12.7957 15.4609 12 15.4609Z" fill="#353535"/>
</g>
<defs>
<clipPath id="clip0_2502_11488">
<rect width="24" height="24" fill="white"/>
</clipPath>
</defs>
</svg>
