<svg width="360" height="50" viewBox="0 0 360 50" fill="none" xmlns="http://www.w3.org/2000/svg">
<g clip-path="url(#clip0_2523_18300)">
<path d="M-10.6348 2.92969V10H-11.7188V4.00391H-11.7578L-13.4473 5.10742V4.08203L-11.6895 2.92969H-10.6348ZM-6.36719 10.0977C-7.90527 10.0977 -8.97461 9.26758 -8.96484 8.11523C-8.97461 7.20703 -8.3252 6.46484 -7.49023 6.33789V6.29883C-8.21777 6.13281 -8.70117 5.48828 -8.70117 4.7168C-8.70117 3.62793 -7.71973 2.83203 -6.36719 2.83203C-5.03418 2.83203 -4.04785 3.62793 -4.04297 4.7168C-4.04785 5.48828 -4.54102 6.13281 -5.25391 6.29883V6.33789C-4.42871 6.46484 -3.77441 7.20703 -3.76953 8.11523C-3.77441 9.26758 -4.85352 10.0977 -6.36719 10.0977ZM-7.87109 8.03711C-7.88574 8.73047 -7.2998 9.20898 -6.36719 9.20898C-5.44922 9.20898 -4.86328 8.73047 -4.86328 8.03711C-4.86328 7.30957 -5.49805 6.77734 -6.36719 6.77734C-7.24609 6.77734 -7.88574 7.30957 -7.87109 8.03711ZM-7.65625 4.81445C-7.65137 5.47363 -7.12402 5.93262 -6.36719 5.92773C-5.62988 5.93262 -5.09277 5.47852 -5.09766 4.81445C-5.09277 4.15527 -5.61035 3.70605 -6.36719 3.71094C-7.14355 3.70605 -7.65137 4.15527 -7.65625 4.81445ZM-1.96289 9.0918C-2.34375 9.08691 -2.66113 8.7793 -2.65625 8.39844C-2.66113 8.01758 -2.34375 7.70508 -1.96289 7.70508C-1.58691 7.70508 -1.27441 8.01758 -1.26953 8.39844C-1.27441 8.7793 -1.58691 9.08691 -1.96289 9.0918ZM-2.65625 4.54102C-2.66113 4.16016 -2.34375 3.84766 -1.96289 3.84766C-1.58691 3.84766 -1.27441 4.16016 -1.26953 4.54102C-1.27441 4.92188 -1.58691 5.22949 -1.96289 5.23438C-2.34375 5.22949 -2.66113 4.92188 -2.65625 4.54102ZM-0.0195312 10V9.21875L2.43164 6.74805C3.20801 5.94238 3.59375 5.49316 3.59375 4.87305C3.59375 4.1748 3.02734 3.73047 2.28516 3.73047C1.49902 3.73047 1.00098 4.22852 0.996094 4.98047H-0.0195312C-0.0292969 3.68652 0.957031 2.83203 2.30469 2.83203C3.66699 2.83203 4.60938 3.69629 4.61914 4.84375C4.60938 5.63477 4.23828 6.26465 2.91016 7.56836L1.47461 9.02344V9.08203H4.73633V10H-0.0195312ZM8.4375 10.0977C6.97266 10.0977 5.93262 9.31152 5.88867 8.1543H6.98242C7.02148 8.77441 7.63672 9.16992 8.42773 9.16992C9.28223 9.16992 9.90234 8.70605 9.90234 8.01758C9.90234 7.31934 9.32129 6.82129 8.31055 6.81641H7.70508V5.9375H8.31055C9.11621 5.94238 9.67773 5.49316 9.67773 4.81445C9.67773 4.16992 9.19434 3.73047 8.44727 3.73047C7.73926 3.73047 7.10449 4.12598 7.08008 4.76562H6.04492C6.07422 3.61328 7.13867 2.83203 8.45703 2.83203C9.84863 2.83203 10.7227 3.71094 10.7129 4.75586C10.7227 5.56152 10.2246 6.1377 9.46289 6.32812V6.37695C10.4297 6.51367 10.9912 7.16309 10.9863 8.05664C10.9912 9.2334 9.90234 10.0977 8.4375 10.0977Z" fill="#A4A4A4"/>
<path d="M49.7852 2.92969V10H48.7012V4.00391H48.6621L46.9727 5.10742V4.08203L48.7305 2.92969H49.7852ZM54.0527 10.0977C52.5146 10.0977 51.4453 9.26758 51.4551 8.11523C51.4453 7.20703 52.0947 6.46484 52.9297 6.33789V6.29883C52.2021 6.13281 51.7188 5.48828 51.7188 4.7168C51.7188 3.62793 52.7002 2.83203 54.0527 2.83203C55.3857 2.83203 56.3721 3.62793 56.377 4.7168C56.3721 5.48828 55.8789 6.13281 55.166 6.29883V6.33789C55.9912 6.46484 56.6455 7.20703 56.6504 8.11523C56.6455 9.26758 55.5664 10.0977 54.0527 10.0977ZM52.5488 8.03711C52.5342 8.73047 53.1201 9.20898 54.0527 9.20898C54.9707 9.20898 55.5566 8.73047 55.5566 8.03711C55.5566 7.30957 54.9219 6.77734 54.0527 6.77734C53.1738 6.77734 52.5342 7.30957 52.5488 8.03711ZM52.7637 4.81445C52.7686 5.47363 53.2959 5.93262 54.0527 5.92773C54.79 5.93262 55.3271 5.47852 55.3223 4.81445C55.3271 4.15527 54.8096 3.70605 54.0527 3.71094C53.2764 3.70605 52.7686 4.15527 52.7637 4.81445ZM58.457 9.0918C58.0762 9.08691 57.7588 8.7793 57.7637 8.39844C57.7588 8.01758 58.0762 7.70508 58.457 7.70508C58.833 7.70508 59.1455 8.01758 59.1504 8.39844C59.1455 8.7793 58.833 9.08691 58.457 9.0918ZM57.7637 4.54102C57.7588 4.16016 58.0762 3.84766 58.457 3.84766C58.833 3.84766 59.1455 4.16016 59.1504 4.54102C59.1455 4.92188 58.833 5.22949 58.457 5.23438C58.0762 5.22949 57.7588 4.92188 57.7637 4.54102ZM60.4004 10V9.21875L62.8516 6.74805C63.6279 5.94238 64.0137 5.49316 64.0137 4.87305C64.0137 4.1748 63.4473 3.73047 62.7051 3.73047C61.9189 3.73047 61.4209 4.22852 61.416 4.98047H60.4004C60.3906 3.68652 61.377 2.83203 62.7246 2.83203C64.0869 2.83203 65.0293 3.69629 65.0391 4.84375C65.0293 5.63477 64.6582 6.26465 63.3301 7.56836L61.8945 9.02344V9.08203H65.1562V10H60.4004ZM66.0449 8.62305V7.75391L69.1699 2.92969H70.498V7.71484H71.4648V8.62305H70.498V10H69.4824V8.62305H66.0449ZM67.1777 7.71484H69.4824V4.20898H69.4043L67.1777 7.65625V7.71484Z" fill="#A4A4A4"/>
<path d="M110.254 2.92969V10H109.17V4.00391H109.131L107.441 5.10742V4.08203L109.199 2.92969H110.254ZM114.521 10.0977C112.983 10.0977 111.914 9.26758 111.924 8.11523C111.914 7.20703 112.563 6.46484 113.398 6.33789V6.29883C112.671 6.13281 112.188 5.48828 112.188 4.7168C112.188 3.62793 113.169 2.83203 114.521 2.83203C115.854 2.83203 116.841 3.62793 116.846 4.7168C116.841 5.48828 116.348 6.13281 115.635 6.29883V6.33789C116.46 6.46484 117.114 7.20703 117.119 8.11523C117.114 9.26758 116.035 10.0977 114.521 10.0977ZM113.018 8.03711C113.003 8.73047 113.589 9.20898 114.521 9.20898C115.439 9.20898 116.025 8.73047 116.025 8.03711C116.025 7.30957 115.391 6.77734 114.521 6.77734C113.643 6.77734 113.003 7.30957 113.018 8.03711ZM113.232 4.81445C113.237 5.47363 113.765 5.93262 114.521 5.92773C115.259 5.93262 115.796 5.47852 115.791 4.81445C115.796 4.15527 115.278 3.70605 114.521 3.71094C113.745 3.70605 113.237 4.15527 113.232 4.81445ZM118.926 9.0918C118.545 9.08691 118.228 8.7793 118.232 8.39844C118.228 8.01758 118.545 7.70508 118.926 7.70508C119.302 7.70508 119.614 8.01758 119.619 8.39844C119.614 8.7793 119.302 9.08691 118.926 9.0918ZM118.232 4.54102C118.228 4.16016 118.545 3.84766 118.926 3.84766C119.302 3.84766 119.614 4.16016 119.619 4.54102C119.614 4.92188 119.302 5.22949 118.926 5.23438C118.545 5.22949 118.228 4.92188 118.232 4.54102ZM120.869 10V9.21875L123.32 6.74805C124.097 5.94238 124.482 5.49316 124.482 4.87305C124.482 4.1748 123.916 3.73047 123.174 3.73047C122.388 3.73047 121.89 4.22852 121.885 4.98047H120.869C120.859 3.68652 121.846 2.83203 123.193 2.83203C124.556 2.83203 125.498 3.69629 125.508 4.84375C125.498 5.63477 125.127 6.26465 123.799 7.56836L122.363 9.02344V9.08203H125.625V10H120.869ZM129.219 10.0977C127.881 10.0977 126.875 9.28223 126.826 8.1543H127.871C127.93 8.75488 128.506 9.19434 129.219 9.19922C130.078 9.19434 130.693 8.57422 130.693 7.73438C130.693 6.875 130.059 6.25 129.17 6.24023C128.604 6.24023 128.169 6.43066 127.93 6.86523H126.914L127.373 2.92969H131.377V3.84766H128.262L128.027 5.83008H128.096C128.389 5.54688 128.887 5.35645 129.424 5.35156C130.757 5.35645 131.738 6.34277 131.738 7.70508C131.738 9.09668 130.693 10.0977 129.219 10.0977Z" fill="#A4A4A4"/>
<path d="M170.571 2.92969V10H169.487V4.00391H169.448L167.759 5.10742V4.08203L169.517 2.92969H170.571ZM174.839 10.0977C173.301 10.0977 172.231 9.26758 172.241 8.11523C172.231 7.20703 172.881 6.46484 173.716 6.33789V6.29883C172.988 6.13281 172.505 5.48828 172.505 4.7168C172.505 3.62793 173.486 2.83203 174.839 2.83203C176.172 2.83203 177.158 3.62793 177.163 4.7168C177.158 5.48828 176.665 6.13281 175.952 6.29883V6.33789C176.777 6.46484 177.432 7.20703 177.437 8.11523C177.432 9.26758 176.353 10.0977 174.839 10.0977ZM173.335 8.03711C173.32 8.73047 173.906 9.20898 174.839 9.20898C175.757 9.20898 176.343 8.73047 176.343 8.03711C176.343 7.30957 175.708 6.77734 174.839 6.77734C173.96 6.77734 173.32 7.30957 173.335 8.03711ZM173.55 4.81445C173.555 5.47363 174.082 5.93262 174.839 5.92773C175.576 5.93262 176.113 5.47852 176.108 4.81445C176.113 4.15527 175.596 3.70605 174.839 3.71094C174.062 3.70605 173.555 4.15527 173.55 4.81445ZM179.243 9.0918C178.862 9.08691 178.545 8.7793 178.55 8.39844C178.545 8.01758 178.862 7.70508 179.243 7.70508C179.619 7.70508 179.932 8.01758 179.937 8.39844C179.932 8.7793 179.619 9.08691 179.243 9.0918ZM178.55 4.54102C178.545 4.16016 178.862 3.84766 179.243 3.84766C179.619 3.84766 179.932 4.16016 179.937 4.54102C179.932 4.92188 179.619 5.22949 179.243 5.23438C178.862 5.22949 178.545 4.92188 178.55 4.54102ZM181.187 10V9.21875L183.638 6.74805C184.414 5.94238 184.8 5.49316 184.8 4.87305C184.8 4.1748 184.233 3.73047 183.491 3.73047C182.705 3.73047 182.207 4.22852 182.202 4.98047H181.187C181.177 3.68652 182.163 2.83203 183.511 2.83203C184.873 2.83203 185.815 3.69629 185.825 4.84375C185.815 5.63477 185.444 6.26465 184.116 7.56836L182.681 9.02344V9.08203H185.942V10H181.187ZM189.692 10.0977C188.384 10.0879 187.017 9.31152 187.017 6.69922C187.021 4.23828 188.086 2.83203 189.78 2.83203C191.084 2.83203 191.987 3.64258 192.153 4.76562H191.089C190.947 4.18945 190.493 3.77441 189.78 3.76953C188.687 3.77441 188.052 4.72168 188.052 6.31836H188.13C188.516 5.71777 189.18 5.36621 189.946 5.36133C191.206 5.36621 192.222 6.33301 192.222 7.68555C192.222 9.05762 191.211 10.1074 189.692 10.0977ZM188.179 7.71484C188.184 8.50098 188.813 9.19434 189.683 9.19922C190.537 9.19434 191.177 8.53027 191.177 7.70508C191.177 6.89453 190.562 6.23535 189.712 6.24023C188.848 6.23535 188.188 6.92871 188.179 7.71484Z" fill="#A4A4A4"/>
<path d="M230.789 2.92969V10H229.705V4.00391H229.666L227.977 5.10742V4.08203L229.734 2.92969H230.789ZM235.057 10.0977C233.519 10.0977 232.449 9.26758 232.459 8.11523C232.449 7.20703 233.099 6.46484 233.934 6.33789V6.29883C233.206 6.13281 232.723 5.48828 232.723 4.7168C232.723 3.62793 233.704 2.83203 235.057 2.83203C236.39 2.83203 237.376 3.62793 237.381 4.7168C237.376 5.48828 236.883 6.13281 236.17 6.29883V6.33789C236.995 6.46484 237.649 7.20703 237.654 8.11523C237.649 9.26758 236.57 10.0977 235.057 10.0977ZM233.553 8.03711C233.538 8.73047 234.124 9.20898 235.057 9.20898C235.975 9.20898 236.561 8.73047 236.561 8.03711C236.561 7.30957 235.926 6.77734 235.057 6.77734C234.178 6.77734 233.538 7.30957 233.553 8.03711ZM233.768 4.81445C233.772 5.47363 234.3 5.93262 235.057 5.92773C235.794 5.93262 236.331 5.47852 236.326 4.81445C236.331 4.15527 235.813 3.70605 235.057 3.71094C234.28 3.70605 233.772 4.15527 233.768 4.81445ZM239.461 9.0918C239.08 9.08691 238.763 8.7793 238.768 8.39844C238.763 8.01758 239.08 7.70508 239.461 7.70508C239.837 7.70508 240.149 8.01758 240.154 8.39844C240.149 8.7793 239.837 9.08691 239.461 9.0918ZM238.768 4.54102C238.763 4.16016 239.08 3.84766 239.461 3.84766C239.837 3.84766 240.149 4.16016 240.154 4.54102C240.149 4.92188 239.837 5.22949 239.461 5.23438C239.08 5.22949 238.763 4.92188 238.768 4.54102ZM241.404 10V9.21875L243.855 6.74805C244.632 5.94238 245.018 5.49316 245.018 4.87305C245.018 4.1748 244.451 3.73047 243.709 3.73047C242.923 3.73047 242.425 4.22852 242.42 4.98047H241.404C241.395 3.68652 242.381 2.83203 243.729 2.83203C245.091 2.83203 246.033 3.69629 246.043 4.84375C246.033 5.63477 245.662 6.26465 244.334 7.56836L242.898 9.02344V9.08203H246.16V10H241.404ZM247.596 10L250.75 3.90625V3.84766H247.107V2.92969H251.863V3.88672L248.719 10H247.596Z" fill="#A4A4A4"/>
<path d="M290.395 2.92969V10H289.311V4.00391H289.271L287.582 5.10742V4.08203L289.34 2.92969H290.395ZM294.662 10.0977C293.124 10.0977 292.055 9.26758 292.064 8.11523C292.055 7.20703 292.704 6.46484 293.539 6.33789V6.29883C292.812 6.13281 292.328 5.48828 292.328 4.7168C292.328 3.62793 293.31 2.83203 294.662 2.83203C295.995 2.83203 296.981 3.62793 296.986 4.7168C296.981 5.48828 296.488 6.13281 295.775 6.29883V6.33789C296.601 6.46484 297.255 7.20703 297.26 8.11523C297.255 9.26758 296.176 10.0977 294.662 10.0977ZM293.158 8.03711C293.144 8.73047 293.729 9.20898 294.662 9.20898C295.58 9.20898 296.166 8.73047 296.166 8.03711C296.166 7.30957 295.531 6.77734 294.662 6.77734C293.783 6.77734 293.144 7.30957 293.158 8.03711ZM293.373 4.81445C293.378 5.47363 293.905 5.93262 294.662 5.92773C295.399 5.93262 295.937 5.47852 295.932 4.81445C295.937 4.15527 295.419 3.70605 294.662 3.71094C293.886 3.70605 293.378 4.15527 293.373 4.81445ZM299.066 9.0918C298.686 9.08691 298.368 8.7793 298.373 8.39844C298.368 8.01758 298.686 7.70508 299.066 7.70508C299.442 7.70508 299.755 8.01758 299.76 8.39844C299.755 8.7793 299.442 9.08691 299.066 9.0918ZM298.373 4.54102C298.368 4.16016 298.686 3.84766 299.066 3.84766C299.442 3.84766 299.755 4.16016 299.76 4.54102C299.755 4.92188 299.442 5.22949 299.066 5.23438C298.686 5.22949 298.368 4.92188 298.373 4.54102ZM301.01 10V9.21875L303.461 6.74805C304.237 5.94238 304.623 5.49316 304.623 4.87305C304.623 4.1748 304.057 3.73047 303.314 3.73047C302.528 3.73047 302.03 4.22852 302.025 4.98047H301.01C301 3.68652 301.986 2.83203 303.334 2.83203C304.696 2.83203 305.639 3.69629 305.648 4.84375C305.639 5.63477 305.268 6.26465 303.939 7.56836L302.504 9.02344V9.08203H305.766V10H301.01ZM309.428 10.0977C307.89 10.0977 306.82 9.26758 306.83 8.11523C306.82 7.20703 307.47 6.46484 308.305 6.33789V6.29883C307.577 6.13281 307.094 5.48828 307.094 4.7168C307.094 3.62793 308.075 2.83203 309.428 2.83203C310.761 2.83203 311.747 3.62793 311.752 4.7168C311.747 5.48828 311.254 6.13281 310.541 6.29883V6.33789C311.366 6.46484 312.021 7.20703 312.025 8.11523C312.021 9.26758 310.941 10.0977 309.428 10.0977ZM307.924 8.03711C307.909 8.73047 308.495 9.20898 309.428 9.20898C310.346 9.20898 310.932 8.73047 310.932 8.03711C310.932 7.30957 310.297 6.77734 309.428 6.77734C308.549 6.77734 307.909 7.30957 307.924 8.03711ZM308.139 4.81445C308.144 5.47363 308.671 5.93262 309.428 5.92773C310.165 5.93262 310.702 5.47852 310.697 4.81445C310.702 4.15527 310.185 3.70605 309.428 3.71094C308.651 3.70605 308.144 4.15527 308.139 4.81445Z" fill="#A4A4A4"/>
<path d="M350.771 2.92969V10H349.687V4.00391H349.647L347.958 5.10742V4.08203L349.716 2.92969H350.771ZM355.038 10.0977C353.5 10.0977 352.431 9.26758 352.44 8.11523C352.431 7.20703 353.08 6.46484 353.915 6.33789V6.29883C353.188 6.13281 352.704 5.48828 352.704 4.7168C352.704 3.62793 353.686 2.83203 355.038 2.83203C356.371 2.83203 357.357 3.62793 357.362 4.7168C357.357 5.48828 356.864 6.13281 356.151 6.29883V6.33789C356.977 6.46484 357.631 7.20703 357.636 8.11523C357.631 9.26758 356.552 10.0977 355.038 10.0977ZM353.534 8.03711C353.52 8.73047 354.105 9.20898 355.038 9.20898C355.956 9.20898 356.542 8.73047 356.542 8.03711C356.542 7.30957 355.907 6.77734 355.038 6.77734C354.159 6.77734 353.52 7.30957 353.534 8.03711ZM353.749 4.81445C353.754 5.47363 354.281 5.93262 355.038 5.92773C355.775 5.93262 356.312 5.47852 356.308 4.81445C356.312 4.15527 355.795 3.70605 355.038 3.71094C354.262 3.70605 353.754 4.15527 353.749 4.81445ZM359.442 9.0918C359.062 9.08691 358.744 8.7793 358.749 8.39844C358.744 8.01758 359.062 7.70508 359.442 7.70508C359.818 7.70508 360.131 8.01758 360.136 8.39844C360.131 8.7793 359.818 9.08691 359.442 9.0918ZM358.749 4.54102C358.744 4.16016 359.062 3.84766 359.442 3.84766C359.818 3.84766 360.131 4.16016 360.136 4.54102C360.131 4.92188 359.818 5.22949 359.442 5.23438C359.062 5.22949 358.744 4.92188 358.749 4.54102ZM361.386 10V9.21875L363.837 6.74805C364.613 5.94238 364.999 5.49316 364.999 4.87305C364.999 4.1748 364.433 3.73047 363.69 3.73047C362.904 3.73047 362.406 4.22852 362.401 4.98047H361.386C361.376 3.68652 362.362 2.83203 363.71 2.83203C365.072 2.83203 366.015 3.69629 366.024 4.84375C366.015 5.63477 365.644 6.26465 364.315 7.56836L362.88 9.02344V9.08203H366.142V10H361.386ZM369.765 2.83203C371.063 2.8418 372.426 3.62305 372.431 6.21094C372.431 8.69141 371.361 10.0977 369.667 10.0977C368.363 10.0977 367.455 9.29199 367.284 8.14453H368.349C368.495 8.74023 368.954 9.15527 369.667 9.16016C370.756 9.15527 371.396 8.20801 371.405 6.5918H371.317C370.937 7.1875 370.272 7.54883 369.511 7.54883C368.241 7.54883 367.226 6.57715 367.226 5.22461C367.226 3.87695 368.227 2.82227 369.765 2.83203ZM368.271 5.20508C368.275 6.02539 368.886 6.6748 369.745 6.66992C370.6 6.6748 371.259 5.97656 371.259 5.19531C371.259 4.42871 370.629 3.73047 369.765 3.73047C368.91 3.73047 368.266 4.39453 368.271 5.20508Z" fill="#A4A4A4"/>
<rect x="-1" y="20" width="2" height="14" rx="1" fill="#797979"/>
<rect x="5" y="26" width="2" height="8" rx="1" fill="black" fill-opacity="0.4"/>
<rect x="11" y="26" width="2" height="8" rx="1" fill="black" fill-opacity="0.4"/>
<rect x="17" y="26" width="2" height="8" rx="1" fill="black" fill-opacity="0.4"/>
<rect x="23" y="26" width="2" height="8" rx="1" fill="black" fill-opacity="0.4"/>
<rect x="29" y="26" width="2" height="8" rx="1" fill="black" fill-opacity="0.4"/>
<rect x="35" y="26" width="2" height="8" rx="1" fill="black" fill-opacity="0.4"/>
<rect x="41" y="26" width="2" height="8" rx="1" fill="black" fill-opacity="0.4"/>
<rect x="47" y="26" width="2" height="8" rx="1" fill="black" fill-opacity="0.4"/>
<rect x="53" y="26" width="2" height="8" rx="1" fill="black" fill-opacity="0.4"/>
<rect x="59" y="20" width="2" height="14" rx="1" fill="#797979"/>
<rect x="65" y="26" width="2" height="8" rx="1" fill="black" fill-opacity="0.4"/>
<rect x="71" y="26" width="2" height="8" rx="1" fill="black" fill-opacity="0.4"/>
<rect x="77" y="26" width="2" height="8" rx="1" fill="black" fill-opacity="0.4"/>
<rect x="83" y="26" width="2" height="8" rx="1" fill="black" fill-opacity="0.4"/>
<rect x="89" y="26" width="2" height="8" rx="1" fill="black" fill-opacity="0.4"/>
<rect x="95" y="26" width="2" height="8" rx="1" fill="black" fill-opacity="0.4"/>
<rect x="101" y="26" width="2" height="8" rx="1" fill="black" fill-opacity="0.4"/>
<rect x="107" y="26" width="2" height="8" rx="1" fill="black" fill-opacity="0.4"/>
<rect x="113" y="26" width="2" height="8" rx="1" fill="black" fill-opacity="0.4"/>
<rect x="119" y="20" width="2" height="14" rx="1" fill="#797979"/>
<rect x="125" y="26" width="2" height="8" rx="1" fill="black" fill-opacity="0.4"/>
<rect x="131" y="26" width="2" height="8" rx="1" fill="black" fill-opacity="0.4"/>
<rect x="137" y="26" width="2" height="8" rx="1" fill="black" fill-opacity="0.4"/>
<rect x="143" y="26" width="2" height="8" rx="1" fill="black" fill-opacity="0.4"/>
<rect x="149" y="26" width="2" height="8" rx="1" fill="black" fill-opacity="0.4"/>
<rect x="155" y="26" width="2" height="8" rx="1" fill="black" fill-opacity="0.4"/>
<rect x="161" y="26" width="2" height="8" rx="1" fill="black" fill-opacity="0.4"/>
<rect x="167" y="26" width="2" height="8" rx="1" fill="black" fill-opacity="0.4"/>
<rect x="173" y="26" width="2" height="8" rx="1" fill="black" fill-opacity="0.4"/>
<rect x="179" y="20" width="2" height="14" rx="1" fill="#797979"/>
<rect x="185" y="26" width="2" height="8" rx="1" fill="black" fill-opacity="0.4"/>
<rect x="191" y="26" width="2" height="8" rx="1" fill="black" fill-opacity="0.4"/>
<rect x="197" y="26" width="2" height="8" rx="1" fill="black" fill-opacity="0.4"/>
<rect x="203" y="26" width="2" height="8" rx="1" fill="black" fill-opacity="0.4"/>
<rect x="209" y="26" width="2" height="8" rx="1" fill="black" fill-opacity="0.4"/>
<rect x="215" y="26" width="2" height="8" rx="1" fill="black" fill-opacity="0.4"/>
<rect x="221" y="26" width="2" height="8" rx="1" fill="black" fill-opacity="0.4"/>
<rect x="227" y="26" width="2" height="8" rx="1" fill="black" fill-opacity="0.4"/>
<rect x="233" y="26" width="2" height="8" rx="1" fill="black" fill-opacity="0.4"/>
<rect x="239" y="20" width="2" height="14" rx="1" fill="#797979"/>
<rect x="245" y="26" width="2" height="8" rx="1" fill="black" fill-opacity="0.4"/>
<rect x="251" y="26" width="2" height="8" rx="1" fill="black" fill-opacity="0.4"/>
<rect x="257" y="26" width="2" height="8" rx="1" fill="black" fill-opacity="0.4"/>
<rect x="263" y="26" width="2" height="8" rx="1" fill="black" fill-opacity="0.4"/>
<rect x="269" y="26" width="2" height="8" rx="1" fill="black" fill-opacity="0.4"/>
<rect x="275" y="26" width="2" height="8" rx="1" fill="black" fill-opacity="0.4"/>
<rect x="281" y="26" width="2" height="8" rx="1" fill="black" fill-opacity="0.4"/>
<rect x="287" y="26" width="2" height="8" rx="1" fill="black" fill-opacity="0.4"/>
<rect x="293" y="26" width="2" height="8" rx="1" fill="black" fill-opacity="0.4"/>
<rect x="299" y="20" width="2" height="14" rx="1" fill="#797979"/>
<rect x="305" y="26" width="2" height="8" rx="1" fill="black" fill-opacity="0.4"/>
<rect x="311" y="26" width="2" height="8" rx="1" fill="black" fill-opacity="0.4"/>
<rect x="317" y="26" width="2" height="8" rx="1" fill="black" fill-opacity="0.4"/>
<rect x="323" y="26" width="2" height="8" rx="1" fill="black" fill-opacity="0.4"/>
<rect x="329" y="26" width="2" height="8" rx="1" fill="black" fill-opacity="0.4"/>
<rect x="335" y="26" width="2" height="8" rx="1" fill="black" fill-opacity="0.4"/>
<rect x="341" y="26" width="2" height="8" rx="1" fill="black" fill-opacity="0.4"/>
<rect x="347" y="26" width="2" height="8" rx="1" fill="black" fill-opacity="0.4"/>
<rect x="353" y="26" width="2" height="8" rx="1" fill="black" fill-opacity="0.4"/>
<rect x="359" y="20" width="2" height="14" rx="1" fill="#797979"/>
<rect x="220" width="140" height="50" fill="url(#paint0_linear_2523_18300)"/>
<rect width="140" height="50" transform="matrix(-1 0 0 1 140 0)" fill="url(#paint1_linear_2523_18300)"/>
</g>
<defs>
<linearGradient id="paint0_linear_2523_18300" x1="220" y1="25" x2="360" y2="25" gradientUnits="userSpaceOnUse">
<stop stop-color="#F7F7F7" stop-opacity="0"/>
<stop offset="0.899038" stop-color="#F7F7F7"/>
</linearGradient>
<linearGradient id="paint1_linear_2523_18300" x1="1.04308e-06" y1="25" x2="140" y2="25" gradientUnits="userSpaceOnUse">
<stop stop-color="#F7F7F7" stop-opacity="0"/>
<stop offset="0.899038" stop-color="#F7F7F7"/>
</linearGradient>
<clipPath id="clip0_2523_18300">
<rect width="360" height="50" fill="white"/>
</clipPath>
</defs>
</svg>
