<svg width="24" height="24" viewBox="0 0 24 24" fill="none" xmlns="http://www.w3.org/2000/svg">
<path d="M10.5661 15.5739V10.1758H9.43867L8.16797 11.007V12.1153L9.32402 11.37H9.35268V15.5739H10.5661Z" fill="#353535"/>
<path d="M12.5344 15.3259C12.8593 15.5457 13.2414 15.6508 13.6809 15.6508C14.1204 15.6508 14.5121 15.5457 14.8274 15.3259C15.1523 15.1062 15.3911 14.7909 15.5727 14.3801C15.7542 13.9692 15.8306 13.4629 15.8306 12.8801C15.8306 12.2973 15.7446 11.7909 15.5727 11.3801C15.4007 10.9692 15.1523 10.6444 14.8274 10.4342C14.5026 10.2145 14.1204 10.1094 13.6809 10.1094C13.2414 10.1094 12.8497 10.2145 12.5344 10.4342C12.2096 10.654 11.9707 10.9692 11.7892 11.3801C11.6077 11.7909 11.5312 12.2973 11.5312 12.8801C11.5312 13.4629 11.6172 13.9692 11.7892 14.3801C11.9612 14.7909 12.2096 15.1157 12.5344 15.3259ZM13.0121 11.5807C13.1746 11.2845 13.3943 11.1317 13.6809 11.1317C13.9676 11.1317 14.1873 11.275 14.3497 11.5712C14.5121 11.8673 14.5886 12.2973 14.5886 12.8801C14.5886 13.4629 14.5121 13.8928 14.3497 14.189C14.1873 14.4852 13.9676 14.6285 13.6809 14.6285C13.3943 14.6285 13.1841 14.4852 13.0217 14.1985C12.8593 13.9119 12.7733 13.4915 12.7733 12.9278C12.7733 12.3642 12.8497 11.896 13.0121 11.5903V11.5807Z" fill="#353535"/>
<path d="M11.9999 4.75796C11.9044 4.75796 11.8184 4.76752 11.7229 4.76752L12.812 3.67834L12.1337 3L10.07 5.06369C9.984 5.14968 9.92668 5.27389 9.92668 5.39809C9.92668 5.52229 9.97445 5.6465 10.07 5.73248L12.1337 7.79618L12.812 7.11783L11.4267 5.73248C11.6178 5.71338 11.7993 5.70382 11.9904 5.70382C15.9458 5.70382 19.156 8.91401 19.156 12.8694C19.156 16.8248 15.9458 20.035 11.9904 20.035C8.03496 20.035 4.83432 16.8248 4.83432 12.879H3.87891C3.87891 17.3599 7.51903 21 11.9999 21C16.4808 21 20.1209 17.3599 20.1209 12.879C20.1209 8.39809 16.4808 4.75796 11.9999 4.75796Z" fill="#353535"/>
</svg>
