<svg width="24" height="24" viewBox="0 0 24 24" fill="none" xmlns="http://www.w3.org/2000/svg">
<path d="M10.5673 15.5689V10.168H9.43934L8.16797 10.9996V12.1085L9.32463 11.3629H9.35331V15.5689H10.5673Z" fill="#353535"/>
<path d="M12.535 10.4188C12.21 10.6386 11.971 10.9541 11.7893 11.3651C11.6077 11.7762 11.5312 12.2828 11.5312 12.8659C11.5312 13.449 11.6173 13.9557 11.7893 14.3667C11.9614 14.7778 12.21 15.1028 12.535 15.3131C12.86 15.5329 13.2423 15.6381 13.6821 15.6381C14.1218 15.6381 14.5137 15.5329 14.8292 15.3131C15.1542 15.0932 15.3932 14.7778 15.5748 14.3667C15.7564 13.9557 15.8329 13.449 15.8329 12.8659C15.8329 12.2828 15.7469 11.7762 15.5748 11.3651C15.4027 10.9541 15.1542 10.6291 14.8292 10.4188C14.5042 10.1989 14.1218 10.0938 13.6821 10.0938C13.2423 10.0938 12.8504 10.1989 12.535 10.4188ZM14.3512 11.5659C14.5137 11.8622 14.5902 12.2924 14.5902 12.8755C14.5902 13.4586 14.5137 13.8888 14.3512 14.1851C14.1887 14.4814 13.9688 14.6248 13.6821 14.6248C13.3953 14.6248 13.185 14.4814 13.0225 14.1947C12.86 13.9079 12.7739 13.4873 12.7739 12.9233C12.7739 12.3593 12.8504 11.8909 13.0129 11.585C13.1754 11.2791 13.3953 11.1357 13.6821 11.1357C13.9688 11.1357 14.1887 11.2791 14.3512 11.5754V11.5659Z" fill="#353535"/>
<path d="M12.0003 20.0441C8.04282 20.0441 4.83092 16.8322 4.83092 12.8747C4.83092 8.91715 8.04282 5.70526 12.0003 5.70526C12.1915 5.70526 12.3731 5.72438 12.5643 5.73394L11.1782 7.12002L11.8569 7.79873L13.9217 5.73394C14.0078 5.6479 14.0651 5.52363 14.0651 5.39936C14.0651 5.27509 14.0173 5.15082 13.9217 5.06479L11.8569 3L11.1782 3.6787L12.268 4.76845C12.1724 4.76845 12.0864 4.7589 11.9908 4.7589C7.51706 4.74934 3.875 8.3914 3.875 12.8747C3.875 17.3579 7.51706 21 12.0003 21C16.4836 21 20.1257 17.3579 20.1257 12.8747H19.1697C19.1697 16.8322 15.9578 20.0441 12.0003 20.0441Z" fill="#353535"/>
</svg>
