<svg width="24" height="24" viewBox="0 0 24 24" fill="none" xmlns="http://www.w3.org/2000/svg">
<path d="M3 3.5625V10.5938C3 10.9088 3.2475 11.1562 3.5625 11.1562H10.5938C10.9088 11.1562 11.1562 10.9088 11.1562 10.5938V3.5625C11.1562 3.2475 10.9088 3 10.5938 3H3.5625C3.2475 3 3 3.2475 3 3.5625ZM4.125 4.125H10.0312V10.0312H4.125V4.125Z" fill="#353535"/>
<path d="M20.4375 3H13.4062C13.0913 3 12.8438 3.2475 12.8438 3.5625V10.5938C12.8438 10.9088 13.0913 11.1562 13.4062 11.1562H20.4375C20.7525 11.1562 21 10.9088 21 10.5938V3.5625C21 3.2475 20.7525 3 20.4375 3ZM19.875 10.0312H13.9688V4.125H19.875V10.0312Z" fill="#353535"/>
<path d="M3 20.4375C3 20.7525 3.2475 21 3.5625 21H10.5938C10.9088 21 11.1562 20.7525 11.1562 20.4375V13.4062C11.1562 13.0913 10.9088 12.8438 10.5938 12.8438H3.5625C3.2475 12.8438 3 13.0913 3 13.4062V20.4375ZM4.125 13.9688H10.0312V19.875H4.125V13.9688Z" fill="#353535"/>
<path d="M21 20.4375V13.4062C21 13.0913 20.7525 12.8438 20.4375 12.8438H13.4062C13.0913 12.8438 12.8438 13.0913 12.8438 13.4062V20.4375C12.8438 20.7525 13.0913 21 13.4062 21H20.4375C20.7525 21 21 20.7525 21 20.4375ZM19.875 19.875H13.9688V13.9688H19.875V19.875Z" fill="#353535"/>
</svg>
