<svg width="52" height="20" viewBox="0 0 52 20" fill="none" xmlns="http://www.w3.org/2000/svg">
<path d="M35.1771 16.5723H18.8926V18.5864H35.1771V16.5723Z" fill="white" fill-opacity="0.3"/>
<path d="M27.0254 8.17406C29.906 12.9049 34.7071 13.506 34.7071 13.506V11.3514C30.0622 10.0164 28.3213 5.9804 28.3213 3.01387V0.671875H25.7373V3.01387C25.7373 5.9804 23.9965 10.0242 19.3516 11.3514V13.506C19.3516 13.506 24.1448 12.9049 27.0332 8.17406H27.0254Z" fill="white" fill-opacity="0.3"/>
<path d="M16.1682 0.21875H13.8809V19.5168H16.1682V0.21875Z" fill="white" fill-opacity="0.3"/>
<path d="M10.4218 6.62801H9.19614C8.81362 2.46707 6.92443 0.55444 4.6371 0.55444C2.07655 0.55444 0 2.95108 0 8.22057C0 13.4901 2.07655 15.8867 4.6371 15.8867C7.19766 15.8867 9.1493 13.6228 9.25859 8.64993H10.4218V19.5246H12.7013V0.226562H10.4218V6.63582V6.62801ZM4.6371 13.4979C3.34121 13.4979 2.29513 12.3034 2.29513 8.22838C2.29513 4.15331 3.34121 2.95889 4.6371 2.95889C5.93299 2.95889 6.97907 4.17673 6.97907 8.22838C6.97907 12.28 5.93299 13.4979 4.6371 13.4979Z" fill="white" fill-opacity="0.3"/>
<path d="M40.9317 17.4709V12.498H38.4492V19.5162H52.0014V17.4709H40.9317Z" fill="white" fill-opacity="0.3"/>
<path d="M43.0215 8.3375C45.8553 8.3375 48.1504 6.94011 48.1504 4.16875C48.1504 1.39739 45.8553 0 43.0215 0C40.1877 0 37.8926 1.43642 37.8926 4.16875C37.8926 6.90108 40.1877 8.3375 43.0215 8.3375ZM43.0215 1.92044C44.5047 1.92044 45.6991 2.88065 45.6991 4.19998C45.6991 5.5193 44.4969 6.47952 43.0215 6.47952C41.5461 6.47952 40.3438 5.51149 40.3438 4.19998C40.3438 2.88846 41.5461 1.92044 43.0215 1.92044Z" fill="white" fill-opacity="0.3"/>
<path d="M48.6749 8.93945H37.2305V10.8287H41.8051V14.8647H44.2564V10.8287H48.6749V8.93945Z" fill="white" fill-opacity="0.3"/>
<path d="M49.4171 0.21875V11.7648H45.6621V13.7633H49.4171V15.9257H51.7122V0.21875H49.4171Z" fill="white" fill-opacity="0.3"/>
</svg>
