<svg width="60" height="85" viewBox="0 0 60 85" fill="none" xmlns="http://www.w3.org/2000/svg">
<path d="M28.1488 18.5621L28.1488 2.6227e-06L7.53015e-06 1.39228e-06L6.71877e-06 18.5621L28.1488 18.5621Z" fill="#F2F2F2"/>
<path d="M28.1488 40.7076L28.1488 22.1455L7.53015e-06 22.1455L6.71877e-06 40.7076L28.1488 40.7076Z" fill="#F2F2F2"/>
<path d="M28.1488 62.8541L28.1488 44.292L7.53015e-06 44.292L6.71877e-06 62.8541L28.1488 62.8541Z" fill="#F2F2F2"/>
<path d="M28.1488 84.9996L28.1488 66.4375L7.53015e-06 66.4375L6.71877e-06 84.9996L28.1488 84.9996Z" fill="#F2F2F2"/>
<path d="M60.0004 18.5621L60.0004 2.6227e-06L31.8938 1.39412e-06L31.8938 18.5621L60.0004 18.5621Z" fill="#F2F2F2"/>
<path d="M60.0004 40.7076L60.0004 22.1455L31.8938 22.1455L31.8938 40.7076L60.0004 40.7076Z" fill="#F2F2F2"/>
<path d="M60.0004 62.8541L60.0004 44.292L31.8938 44.292L31.8938 62.8541L60.0004 62.8541Z" fill="#F2F2F2"/>
<path d="M60.0004 84.9996L60.0004 66.4375L31.8938 66.4375L31.8938 84.9996L60.0004 84.9996Z" fill="#F2F2F2"/>
</svg>
