<svg width="90" height="14" viewBox="0 0 90 14" fill="none" xmlns="http://www.w3.org/2000/svg">
<rect width="90" height="14" fill="url(#paint0_linear_2523_18463)"/>
<path d="M24.623 11H22.8535V4.19141H22.8066L20.8613 5.41016V3.85156L22.959 2.51562H24.623V11ZM29.7793 11.1172C29.1426 11.1172 28.5703 11.0137 28.0625 10.8066C27.5586 10.5996 27.1641 10.3145 26.8789 9.95117C26.5938 9.58398 26.4512 9.17188 26.4512 8.71484C26.4512 8.36719 26.5332 8.04297 26.6973 7.74219C26.8613 7.44141 27.0859 7.19336 27.3711 6.99805C27.6602 6.79883 27.9785 6.67188 28.3262 6.61719V6.55859C28.0215 6.5 27.752 6.38281 27.5176 6.20703C27.2832 6.02734 27.1016 5.80664 26.9727 5.54492C26.8438 5.2793 26.7793 4.99219 26.7793 4.68359C26.7793 4.25 26.9082 3.85937 27.166 3.51172C27.4238 3.16406 27.7812 2.89258 28.2383 2.69727C28.6953 2.49805 29.209 2.39844 29.7793 2.39844C30.3496 2.39844 30.8633 2.49805 31.3203 2.69727C31.7773 2.89258 32.1367 3.16406 32.3984 3.51172C32.6602 3.85937 32.791 4.25 32.791 4.68359C32.791 4.98828 32.7227 5.27344 32.5859 5.53906C32.4531 5.80469 32.2695 6.02734 32.0352 6.20703C31.8008 6.38281 31.5371 6.5 31.2441 6.55859V6.61719C31.5879 6.67188 31.9004 6.79883 32.1816 6.99805C32.4668 7.19336 32.6914 7.44141 32.8555 7.74219C33.0234 8.04297 33.1074 8.36719 33.1074 8.71484C33.1074 9.17188 32.9648 9.58398 32.6797 9.95117C32.3945 10.3145 31.998 10.5996 31.4902 10.8066C30.9863 11.0137 30.416 11.1172 29.7793 11.1172ZM28.291 8.53906C28.291 8.77734 28.3516 8.99023 28.4727 9.17773C28.5977 9.36523 28.7734 9.51172 29 9.61719C29.2266 9.71875 29.4863 9.76953 29.7793 9.76953C30.0723 9.76953 30.332 9.71875 30.5586 9.61719C30.7852 9.51172 30.959 9.36523 31.0801 9.17773C31.2051 8.99023 31.2676 8.77734 31.2676 8.53906C31.2676 8.29688 31.2031 8.08008 31.0742 7.88867C30.9492 7.69336 30.7734 7.54102 30.5469 7.43164C30.3203 7.31836 30.0645 7.26172 29.7793 7.26172C29.4941 7.26172 29.2383 7.31836 29.0117 7.43164C28.7852 7.54102 28.6074 7.69336 28.4785 7.88867C28.3535 8.08008 28.291 8.29688 28.291 8.53906ZM28.502 4.85938C28.502 5.08203 28.5547 5.28125 28.6602 5.45703C28.7695 5.63281 28.9219 5.77148 29.1172 5.87305C29.3125 5.9707 29.5332 6.01953 29.7793 6.01953C30.0254 6.01953 30.2461 5.9707 30.4414 5.87305C30.6367 5.77148 30.7891 5.63281 30.8984 5.45703C31.0117 5.28125 31.0684 5.08203 31.0684 4.85938C31.0684 4.64062 31.0117 4.44727 30.8984 4.2793C30.7891 4.10742 30.6367 3.97461 30.4414 3.88086C30.25 3.7832 30.0293 3.73438 29.7793 3.73438C29.5293 3.73438 29.3066 3.7832 29.1113 3.88086C28.916 3.97461 28.7656 4.10742 28.6602 4.2793C28.5547 4.44727 28.502 4.64062 28.502 4.85938ZM35.3457 9.96875C35.166 9.96875 35 9.92578 34.8477 9.83984C34.6953 9.75 34.5742 9.63086 34.4844 9.48242C34.3984 9.33008 34.3574 9.16406 34.3613 8.98438C34.3574 8.80859 34.3984 8.64648 34.4844 8.49805C34.5742 8.3457 34.6953 8.22656 34.8477 8.14062C35 8.05469 35.166 8.01172 35.3457 8.01172C35.5176 8.01172 35.6777 8.05469 35.8262 8.14062C35.9746 8.22656 36.0938 8.3457 36.1836 8.49805C36.2734 8.64648 36.3184 8.80859 36.3184 8.98438C36.3184 9.16406 36.2734 9.33008 36.1836 9.48242C36.0938 9.63086 35.9746 9.75 35.8262 9.83984C35.6777 9.92578 35.5176 9.96875 35.3457 9.96875ZM35.3457 5.50391C35.166 5.50391 35 5.46094 34.8477 5.375C34.6953 5.28516 34.5742 5.16602 34.4844 5.01758C34.3984 4.86523 34.3574 4.69922 34.3613 4.51953C34.3574 4.34375 34.3984 4.18164 34.4844 4.0332C34.5742 3.88086 34.6953 3.76172 34.8477 3.67578C35 3.58984 35.166 3.54688 35.3457 3.54688C35.5176 3.54688 35.6777 3.58984 35.8262 3.67578C35.9746 3.76172 36.0938 3.88086 36.1836 4.0332C36.2734 4.18164 36.3184 4.34375 36.3184 4.51953C36.3184 4.69922 36.2734 4.86523 36.1836 5.01758C36.0938 5.16602 35.9746 5.28516 35.8262 5.375C35.6777 5.46094 35.5176 5.50391 35.3457 5.50391ZM37.6895 9.72266L40.7363 6.92188C41.0371 6.63281 41.2695 6.39453 41.4336 6.20703C41.6016 6.01562 41.7305 5.82617 41.8203 5.63867C41.9102 5.44727 41.9551 5.24219 41.9551 5.02344C41.9551 4.77734 41.8965 4.5625 41.7793 4.37891C41.666 4.19141 41.5059 4.04883 41.2988 3.95117C41.0957 3.85352 40.8652 3.80469 40.6074 3.80469C40.2051 3.80078 39.8848 3.91797 39.6465 4.15625C39.4082 4.39062 39.291 4.71094 39.2949 5.11719H37.6191C37.6191 4.57422 37.7441 4.09766 37.9941 3.6875C38.248 3.27344 38.6016 2.95508 39.0547 2.73242C39.5117 2.50977 40.0371 2.39844 40.6309 2.39844C41.2285 2.39844 41.7559 2.50586 42.2129 2.7207C42.6699 2.93164 43.0234 3.22656 43.2734 3.60547C43.5273 3.98438 43.6543 4.41797 43.6543 4.90625C43.6543 5.24219 43.5898 5.56445 43.4609 5.87305C43.332 6.17773 43.1074 6.51758 42.7871 6.89258C42.4707 7.26758 42.0215 7.71875 41.4395 8.24609L40.1504 9.5V9.54688H43.7715V11H37.7012L37.6895 9.72266ZM48.3184 11.1172C47.6934 11.1172 47.123 10.9824 46.6074 10.7129C46.0957 10.4395 45.6797 9.99414 45.3594 9.37695C45.043 8.75977 44.8848 7.95898 44.8848 6.97461C44.8848 6.0332 45.0254 5.21875 45.3066 4.53125C45.5918 3.83984 45.9961 3.3125 46.5195 2.94922C47.0469 2.58203 47.666 2.39844 48.377 2.39844C48.9316 2.39844 49.4297 2.50586 49.8711 2.7207C50.3125 2.93555 50.666 3.23242 50.9316 3.61133C51.2012 3.98633 51.3652 4.40625 51.4238 4.87109H49.6895C49.6191 4.57422 49.4668 4.33984 49.2324 4.16797C49.002 3.99609 48.7168 3.91016 48.377 3.91016C47.8105 3.91016 47.375 4.15039 47.0703 4.63086C46.7695 5.10742 46.6152 5.76953 46.6074 6.61719H46.6895C46.8848 6.24219 47.1758 5.94922 47.5625 5.73828C47.9531 5.52734 48.3848 5.42188 48.8574 5.42188C49.3613 5.42188 49.8164 5.53906 50.2227 5.77344C50.6289 6.00781 50.9453 6.33398 51.1719 6.75195C51.4023 7.16992 51.5176 7.64062 51.5176 8.16406C51.5176 8.73047 51.3828 9.23828 51.1133 9.6875C50.8477 10.1367 50.4727 10.4883 49.9883 10.7422C49.5039 10.9922 48.9473 11.1172 48.3184 11.1172ZM46.7832 8.21094C46.7871 8.48828 46.8535 8.74219 46.9824 8.97266C47.1152 9.20312 47.2969 9.38672 47.5273 9.52344C47.7578 9.65625 48.0137 9.72266 48.2949 9.72266C48.5801 9.72266 48.8379 9.6582 49.0684 9.5293C49.2988 9.39648 49.4785 9.21484 49.6074 8.98438C49.7402 8.75 49.8066 8.49219 49.8066 8.21094C49.8066 7.92969 49.7422 7.67578 49.6133 7.44922C49.4844 7.21875 49.3066 7.03711 49.0801 6.9043C48.8535 6.76758 48.5996 6.69922 48.3184 6.69922C48.0332 6.69922 47.7734 6.76758 47.5391 6.9043C47.3086 7.04102 47.125 7.22461 46.9883 7.45508C46.8555 7.68555 46.7871 7.9375 46.7832 8.21094ZM53.7676 9.96875C53.5879 9.96875 53.4219 9.92578 53.2695 9.83984C53.1172 9.75 52.9961 9.63086 52.9062 9.48242C52.8203 9.33008 52.7793 9.16406 52.7832 8.98438C52.7793 8.80859 52.8203 8.64648 52.9062 8.49805C52.9961 8.3457 53.1172 8.22656 53.2695 8.14062C53.4219 8.05469 53.5879 8.01172 53.7676 8.01172C53.9395 8.01172 54.0996 8.05469 54.248 8.14062C54.3965 8.22656 54.5156 8.3457 54.6055 8.49805C54.6953 8.64648 54.7402 8.80859 54.7402 8.98438C54.7402 9.16406 54.6953 9.33008 54.6055 9.48242C54.5156 9.63086 54.3965 9.75 54.248 9.83984C54.0996 9.92578 53.9395 9.96875 53.7676 9.96875ZM53.7676 5.50391C53.5879 5.50391 53.4219 5.46094 53.2695 5.375C53.1172 5.28516 52.9961 5.16602 52.9062 5.01758C52.8203 4.86523 52.7793 4.69922 52.7832 4.51953C52.7793 4.34375 52.8203 4.18164 52.9062 4.0332C52.9961 3.88086 53.1172 3.76172 53.2695 3.67578C53.4219 3.58984 53.5879 3.54688 53.7676 3.54688C53.9395 3.54688 54.0996 3.58984 54.248 3.67578C54.3965 3.76172 54.5156 3.88086 54.6055 4.0332C54.6953 4.18164 54.7402 4.34375 54.7402 4.51953C54.7402 4.69922 54.6953 4.86523 54.6055 5.01758C54.5156 5.16602 54.3965 5.28516 54.248 5.375C54.0996 5.46094 53.9395 5.50391 53.7676 5.50391ZM59.416 11.1172C58.709 11.1172 58.0996 10.9473 57.5879 10.6074C57.0762 10.2637 56.6836 9.76562 56.4102 9.11328C56.1406 8.46094 56.0059 7.67578 56.0059 6.75781C56.0059 5.84375 56.1426 5.06055 56.416 4.4082C56.6895 3.75195 57.082 3.25391 57.5938 2.91406C58.1055 2.57031 58.7129 2.39844 59.416 2.39844C60.1191 2.39844 60.7266 2.57031 61.2383 2.91406C61.75 3.25391 62.1426 3.75195 62.416 4.4082C62.6895 5.06055 62.8262 5.84375 62.8262 6.75781C62.8262 7.67969 62.6895 8.4668 62.416 9.11914C62.1426 9.77148 61.75 10.2676 61.2383 10.6074C60.7305 10.9473 60.123 11.1172 59.416 11.1172ZM57.8105 6.81055C57.8105 7.74805 57.9531 8.45898 58.2383 8.94336C58.5234 9.42383 58.916 9.66406 59.416 9.66406C59.9199 9.66406 60.3145 9.41992 60.5996 8.93164C60.8848 8.43945 61.0254 7.71484 61.0215 6.75781C61.0215 6.125 60.957 5.5918 60.8281 5.1582C60.6992 4.7207 60.5137 4.39258 60.2715 4.17383C60.0293 3.95508 59.7441 3.84375 59.416 3.83984C58.9121 3.84375 58.5176 4.09766 58.2324 4.60156C57.9512 5.10547 57.8105 5.8418 57.8105 6.81055ZM64.0332 9.72266L67.0801 6.92188C67.3809 6.63281 67.6133 6.39453 67.7773 6.20703C67.9453 6.01562 68.0742 5.82617 68.1641 5.63867C68.2539 5.44727 68.2988 5.24219 68.2988 5.02344C68.2988 4.77734 68.2402 4.5625 68.123 4.37891C68.0098 4.19141 67.8496 4.04883 67.6426 3.95117C67.4395 3.85352 67.209 3.80469 66.9512 3.80469C66.5488 3.80078 66.2285 3.91797 65.9902 4.15625C65.752 4.39062 65.6348 4.71094 65.6387 5.11719H63.9629C63.9629 4.57422 64.0879 4.09766 64.3379 3.6875C64.5918 3.27344 64.9453 2.95508 65.3984 2.73242C65.8555 2.50977 66.3809 2.39844 66.9746 2.39844C67.5723 2.39844 68.0996 2.50586 68.5566 2.7207C69.0137 2.93164 69.3672 3.22656 69.6172 3.60547C69.8711 3.98438 69.998 4.41797 69.998 4.90625C69.998 5.24219 69.9336 5.56445 69.8047 5.87305C69.6758 6.17773 69.4512 6.51758 69.1309 6.89258C68.8145 7.26758 68.3652 7.71875 67.7832 8.24609L66.4941 9.5V9.54688H70.1152V11H64.0449L64.0332 9.72266Z" fill="#353535"/>
<defs>
<linearGradient id="paint0_linear_2523_18463" x1="0" y1="7" x2="90" y2="7" gradientUnits="userSpaceOnUse">
<stop stop-color="#F7F7F7" stop-opacity="0"/>
<stop offset="0.2" stop-color="#F7F7F7"/>
<stop offset="0.8" stop-color="#F7F7F7"/>
<stop offset="1" stop-color="#F7F7F7" stop-opacity="0"/>
</linearGradient>
</defs>
</svg>
