<svg width="20" height="27" viewBox="38 642 20 27" fill="none" xmlns="http://www.w3.org/2000/svg">
<path d="M40.3199 664.48C40.3423 665.137 40.5743 665.77 40.9822 666.286C41.39 666.802 41.9523 667.173 42.5866 667.347V665.187H44.7066V667.347C45.3424 667.174 45.9064 666.803 46.3165 666.287C46.7266 665.771 46.9614 665.138 46.9866 664.48C46.9642 663.883 46.7591 663.307 46.3991 662.83C46.039 662.353 45.5414 661.998 44.9733 661.813V650.227C45.5434 650.045 46.0432 649.691 46.4038 649.213C46.7644 648.736 46.968 648.158 46.9866 647.56C46.9621 646.9 46.7279 646.265 46.3179 645.747C45.9079 645.229 45.3435 644.855 44.7066 644.68V646.84H42.5866V644.68C41.9512 644.856 41.3886 645.23 40.9808 645.748C40.5731 646.266 40.3415 646.901 40.3199 647.56C40.3366 648.159 40.5395 648.737 40.9004 649.215C41.2612 649.693 41.7621 650.047 42.3333 650.227V661.8C41.761 661.983 41.2597 662.339 40.899 662.819C40.5382 663.299 40.3358 663.88 40.3199 664.48V664.48Z" fill="#FF4555"/>
<path d="M51.3867 657.173H49.6934V667.347H55.6934V657.173H53.9867V654.067V650.68L55.6934 649.133L54.04 644.68H53.0934H52.6534H52.2134H51.3467L49.6934 649.133L51.3867 650.68V654.067V657.173Z" fill="#FF4555"/>
</svg>
