<svg width="26" height="26" viewBox="315 15 26 26" fill="none" xmlns="http://www.w3.org/2000/svg">
<path d="M333.76 20.16C333.537 20.2122 333.322 20.2928 333.12 20.4C332.92 20.5014 332.74 20.6368 332.587 20.8C332.205 21.2032 331.995 21.7384 332 22.2933C332.003 22.8618 332.228 23.4067 332.626 23.8124C333.024 24.2181 333.565 24.4528 334.133 24.4666V24.4666C334.352 24.4616 334.568 24.4211 334.773 24.3466C335.01 24.2716 335.232 24.1541 335.427 24C335.7 23.8014 335.923 23.5407 336.076 23.2394C336.229 22.938 336.308 22.6046 336.307 22.2666C336.296 21.6995 336.065 21.1589 335.661 20.7603C335.257 20.3617 334.714 20.1367 334.147 20.1333L333.76 20.16Z" fill="#FF4555"/>
<path d="M317.493 34.76C317.606 34.9665 317.772 35.1394 317.973 35.2612C318.175 35.383 318.405 35.4493 318.64 35.4533H324.867C324.867 36.2914 325.2 37.0952 325.792 37.6878C326.385 38.2804 327.189 38.6133 328.027 38.6133C328.865 38.6133 329.669 38.2804 330.261 37.6878C330.854 37.0952 331.187 36.2914 331.187 35.4533H337.333C337.569 35.4493 337.799 35.383 338 35.2612C338.201 35.1394 338.367 34.9665 338.48 34.76C338.583 34.5492 338.629 34.3149 338.612 34.0808C338.596 33.8467 338.518 33.621 338.387 33.4267L335.52 29.3333V25.1333C335.309 25.2426 335.085 25.3234 334.853 25.3733C334.635 25.428 334.411 25.4549 334.187 25.4533V29.52C334.192 29.6592 334.238 29.7938 334.32 29.9067L337.333 34.12H330.867H318.667L321.707 29.84C321.788 29.7271 321.835 29.5926 321.84 29.4533V24.84C321.836 24.0295 321.993 23.2262 322.301 22.4765C322.61 21.7268 323.063 21.0455 323.636 20.4717C324.208 19.8979 324.888 19.443 325.637 19.1333C326.387 18.8235 327.189 18.6649 328 18.6667H328.627C329.826 18.8023 330.957 19.2999 331.867 20.0933C332.024 19.933 332.199 19.79 332.387 19.6667C332.58 19.5391 332.785 19.4319 333 19.3467C331.848 18.2173 330.35 17.5081 328.747 17.3333C327.699 17.2284 326.641 17.3477 325.644 17.6833C324.646 18.019 323.731 18.5633 322.96 19.28C322.188 19.9861 321.571 20.845 321.149 21.8021C320.727 22.7593 320.508 23.7938 320.507 24.84V29.3333L317.587 33.4267C317.455 33.621 317.377 33.8467 317.361 34.0808C317.344 34.3149 317.39 34.5492 317.493 34.76ZM326.2 35.4533H329.827C329.827 35.9378 329.634 36.4024 329.292 36.745C328.949 37.0876 328.484 37.28 328 37.28C327.516 37.28 327.051 37.0876 326.708 36.745C326.366 36.4024 326.173 35.9378 326.173 35.4533C326.173 35.4533 326.2 35.48 326.2 35.4533Z" fill="#262626"/>
</svg>
