<svg width="20" height="29" viewBox="38 508 20 29" fill="none" xmlns="http://www.w3.org/2000/svg">
<path d="M40.96 530.68H45.2133V534.68C45.2152 534.795 45.2453 534.907 45.3012 535.007C45.357 535.107 45.4368 535.192 45.5333 535.253C45.6402 535.311 45.7588 535.343 45.88 535.347C45.9812 535.343 46.0808 535.321 46.1733 535.28L55.3333 530.627C55.3973 530.58 55.4555 530.527 55.5067 530.467V530.387C55.5596 530.292 55.5915 530.188 55.6 530.08V510.667C55.6125 510.587 55.6125 510.506 55.6 510.427C55.6038 510.4 55.6038 510.373 55.6 510.347C55.5781 510.304 55.5512 510.263 55.52 510.227L55.44 510.16L55.32 510.08H55.2133H55.12H40.96C40.7832 510.08 40.6136 510.15 40.4886 510.275C40.3636 510.4 40.2933 510.57 40.2933 510.747V530C40.2916 530.089 40.3075 530.177 40.3402 530.259C40.3729 530.342 40.4217 530.417 40.4838 530.48C40.5459 530.543 40.62 530.594 40.7018 530.628C40.7835 530.662 40.8713 530.68 40.96 530.68V530.68ZM49.2 525.013H47.8667V521.267H49.2V525.013ZM41.6267 511.333H52.1333C50.8 512.04 48.68 513.093 45.5733 514.72C45.4616 514.778 45.3684 514.866 45.3047 514.975C45.241 515.083 45.2093 515.208 45.2133 515.333V529.347H41.6267V511.333Z" fill="white"/>
</svg>
