<svg width="19" height="18" viewBox="122 713 19 18" fill="none" xmlns="http://www.w3.org/2000/svg">
<path d="M124.225 720.2C123.925 721.381 123.925 722.619 124.225 723.8C124.249 723.89 124.302 723.97 124.376 724.027C124.449 724.085 124.54 724.116 124.633 724.117H126.067C126.266 724.659 126.547 725.167 126.9 725.625L126.175 726.875C126.128 726.955 126.109 727.048 126.121 727.141C126.133 727.233 126.175 727.318 126.242 727.383C126.678 727.805 127.162 728.174 127.683 728.483C128.209 728.784 128.768 729.022 129.35 729.192H129.467C129.539 729.196 129.612 729.181 129.677 729.147C129.741 729.113 129.795 729.062 129.833 729L130.558 727.758C131.16 727.858 131.774 727.858 132.375 727.758L133.167 729C133.213 729.08 133.285 729.143 133.371 729.177C133.457 729.212 133.552 729.217 133.642 729.192C134.223 729.022 134.783 728.784 135.308 728.483C135.83 728.174 136.314 727.805 136.75 727.383C136.816 727.318 136.859 727.233 136.871 727.141C136.883 727.048 136.864 726.955 136.817 726.875L136.092 725.625C136.462 725.172 136.757 724.663 136.967 724.117H138.4C138.493 724.116 138.584 724.085 138.658 724.027C138.732 723.97 138.785 723.89 138.808 723.8C139.108 722.619 139.108 721.381 138.808 720.2C138.785 720.11 138.732 720.03 138.658 719.972C138.584 719.915 138.493 719.884 138.4 719.883H136.933C136.724 719.337 136.429 718.828 136.058 718.375L136.783 717.125C136.83 717.045 136.85 716.951 136.837 716.859C136.825 716.767 136.783 716.682 136.717 716.617C136.281 716.195 135.797 715.826 135.275 715.517C134.749 715.215 134.19 714.978 133.608 714.808C133.524 714.789 133.436 714.798 133.356 714.832C133.277 714.867 133.21 714.925 133.167 715L132.442 716.242C131.84 716.142 131.226 716.142 130.625 716.242L129.833 715C129.787 714.92 129.715 714.857 129.629 714.823C129.543 714.788 129.448 714.783 129.358 714.808C128.777 714.978 128.217 715.215 127.692 715.517C127.181 715.828 126.709 716.197 126.283 716.617C126.217 716.682 126.175 716.767 126.163 716.859C126.15 716.951 126.17 717.045 126.217 717.125L126.942 718.375C126.586 718.831 126.305 719.34 126.108 719.883H124.633C124.54 719.884 124.449 719.915 124.376 719.972C124.302 720.03 124.249 720.11 124.225 720.2V720.2ZM124.967 720.717H126.358C126.446 720.716 126.532 720.689 126.603 720.638C126.675 720.588 126.729 720.516 126.758 720.433C126.967 719.782 127.308 719.181 127.758 718.667C127.816 718.601 127.852 718.52 127.861 718.433C127.87 718.346 127.852 718.259 127.808 718.183L127.1 717C127.743 716.423 128.498 715.984 129.317 715.708L130.017 716.908C130.061 716.985 130.128 717.046 130.209 717.082C130.29 717.118 130.38 717.127 130.467 717.108C131.148 716.967 131.852 716.967 132.533 717.108C132.62 717.128 132.711 717.12 132.792 717.084C132.873 717.048 132.94 716.986 132.983 716.908L133.683 715.708C134.502 715.984 135.257 716.423 135.9 717L135.192 718.208C135.148 718.284 135.13 718.371 135.139 718.458C135.148 718.545 135.184 718.626 135.242 718.692C135.691 719.199 136.034 719.791 136.25 720.433C136.277 720.516 136.329 720.588 136.399 720.639C136.47 720.69 136.555 720.717 136.642 720.717H138.033C138.211 721.563 138.211 722.437 138.033 723.283H136.642C136.554 723.283 136.468 723.311 136.397 723.361C136.325 723.412 136.271 723.484 136.242 723.567C136.033 724.218 135.692 724.819 135.242 725.333C135.184 725.398 135.148 725.48 135.139 725.567C135.13 725.654 135.148 725.741 135.192 725.817L135.9 727C135.257 727.577 134.502 728.016 133.683 728.292L132.983 727.092C132.94 727.014 132.873 726.952 132.792 726.916C132.711 726.88 132.62 726.871 132.533 726.892C131.852 727.033 131.148 727.033 130.467 726.892C130.38 726.873 130.29 726.882 130.209 726.918C130.128 726.954 130.061 727.015 130.017 727.092L129.317 728.292C128.498 728.016 127.743 727.577 127.1 727L127.808 725.792C127.846 725.719 127.861 725.636 127.852 725.555C127.844 725.473 127.811 725.396 127.758 725.333C127.311 724.826 126.97 724.234 126.758 723.592C126.729 723.509 126.675 723.437 126.603 723.386C126.532 723.336 126.446 723.308 126.358 723.308H124.967C124.789 722.462 124.789 721.588 124.967 720.742V720.717Z" fill="#666666"/>
<path d="M131.5 724.075C131.913 724.077 132.317 723.956 132.661 723.727C133.004 723.499 133.273 723.174 133.431 722.793C133.59 722.412 133.632 721.992 133.552 721.587C133.472 721.182 133.273 720.81 132.981 720.519C132.69 720.227 132.318 720.028 131.913 719.948C131.508 719.868 131.088 719.91 130.707 720.069C130.326 720.227 130.001 720.496 129.773 720.839C129.544 721.183 129.423 721.587 129.425 722C129.427 722.55 129.646 723.076 130.035 723.465C130.424 723.853 130.95 724.073 131.5 724.075V724.075ZM131.5 720.742C131.747 720.742 131.989 720.815 132.194 720.952C132.4 721.09 132.56 721.285 132.655 721.513C132.749 721.742 132.774 721.993 132.726 722.236C132.678 722.478 132.559 722.701 132.384 722.876C132.209 723.05 131.986 723.169 131.744 723.218C131.501 723.266 131.25 723.241 131.022 723.146C130.793 723.052 130.598 722.892 130.461 722.686C130.323 722.481 130.25 722.239 130.25 721.992C130.25 721.66 130.382 721.342 130.616 721.108C130.85 720.873 131.168 720.742 131.5 720.742Z" fill="#666666"/>
</svg>
