<svg width="16" height="16" viewBox="128 648 16 16" fill="none" xmlns="http://www.w3.org/2000/svg">
<path d="M136 662.667C137.319 662.667 138.608 662.276 139.704 661.543C140.8 660.811 141.655 659.769 142.159 658.551C142.664 657.333 142.796 655.993 142.539 654.699C142.281 653.406 141.646 652.218 140.714 651.286C139.782 650.354 138.594 649.719 137.301 649.461C136.007 649.204 134.667 649.336 133.449 649.841C132.231 650.345 131.189 651.2 130.457 652.296C129.724 653.393 129.333 654.682 129.333 656C129.333 657.768 130.036 659.464 131.286 660.714C132.536 661.964 134.232 662.667 136 662.667ZM135.167 652.517H136.833V656.683H135.167V652.517ZM135.167 657.817H136.833V659.483H135.167V657.817Z" fill="#FF4555"/>
</svg>
