<svg width="20" height="26" viewBox="38 182 20 26" fill="none" xmlns="http://www.w3.org/2000/svg">
<path d="M43.6133 198.347C44.5457 200.123 46.1114 201.484 48 202.16C49.8886 201.484 51.4542 200.123 52.3866 198.347C52.7668 197.609 52.9936 196.801 53.0533 195.973L53.3333 190.08C51.4822 189.545 49.6941 188.812 48 187.893C46.3058 188.812 44.5177 189.545 42.6666 190.08L42.9066 195.947C42.9867 196.784 43.2266 197.599 43.6133 198.347V198.347Z" fill="white"/>
<path d="M40.8 200.333C42.3399 203.193 44.9163 205.354 48 206.373C51.0837 205.354 53.6601 203.193 55.2 200.333C55.8255 199.139 56.1891 197.826 56.2667 196.48L56.6667 187.227C53.6375 186.397 50.7255 185.187 48 183.627C45.2713 185.164 42.3594 186.352 39.3334 187.16L39.7334 196.413C39.8015 197.782 40.1654 199.119 40.8 200.333ZM41.84 189C43.8713 188.442 45.8277 187.641 47.6667 186.613L48 186.347L48.3334 186.547C50.1693 187.58 52.1265 188.382 54.16 188.933L54.6934 189.067L54.3867 196C54.3251 197.027 54.0528 198.03 53.5867 198.947C52.4507 201.084 50.5439 202.71 48.2534 203.493L48.0134 203.587L47.7734 203.493C45.4828 202.71 43.5761 201.084 42.44 198.947C41.9648 198.024 41.6921 197.01 41.64 195.973L41.3334 189.067L41.84 189Z" fill="white"/>
</svg>
