<svg width="17" height="18" viewBox="321 74 17 18" fill="none" xmlns="http://www.w3.org/2000/svg">
<path d="M326.992 86.3334H324.492C324.381 86.3334 324.275 86.3773 324.197 86.4554C324.119 86.5336 324.075 86.6395 324.075 86.75V89.25H324.908V87.9167C325.887 88.9347 327.148 89.6365 328.529 89.9318C329.91 90.227 331.348 90.1022 332.658 89.5734C333.967 89.0445 335.088 88.1359 335.877 86.9645C336.666 85.793 337.086 84.4123 337.083 83C337.079 82.3956 337 81.7939 336.85 81.2084L336.017 81.4167C336.163 81.9321 336.241 82.4644 336.25 83C336.234 84.2493 335.843 85.465 335.129 86.4902C334.415 87.5153 333.41 88.303 332.244 88.7515C331.078 89.2 329.804 89.2887 328.587 89.0062C327.37 88.7237 326.266 88.083 325.417 87.1667H326.992V86.3334Z" fill="#C4C4C4"/>
<path d="M323.15 84.7917L323.983 84.5833C323.841 84.0671 323.763 83.5353 323.75 83C323.757 81.7417 324.145 80.5149 324.861 79.4801C325.577 78.4454 326.589 77.651 327.764 77.2007C328.939 76.7505 330.222 76.6655 331.447 76.9568C332.671 77.2481 333.779 77.9021 334.625 78.8333H333.017V79.6667H335.517C335.627 79.6667 335.733 79.6228 335.811 79.5446C335.889 79.4665 335.933 79.3605 335.933 79.25V76.75H335.1V78.075C334.121 77.0535 332.859 76.3489 331.475 76.0522C330.092 75.7555 328.652 75.8804 327.34 76.4106C326.028 76.9408 324.906 77.852 324.117 79.0266C323.329 80.2013 322.911 81.5853 322.917 83C322.921 83.6045 323 84.2061 323.15 84.7917V84.7917Z" fill="#C4C4C4"/>
</svg>
