<svg width="32" height="32" viewBox="0 0 32 32" fill="none" xmlns="http://www.w3.org/2000/svg">
<path d="M14.0512 8.43164L8.43247 14.0504C8.15012 14.3328 8.15012 14.7704 8.43247 15.0528L16.9453 23.5656C17.0865 23.7068 17.27 23.7774 17.4394 23.7774C17.6089 23.7774 17.8065 23.7068 17.9336 23.5656L23.5523 17.9469C23.8347 17.6645 23.8347 17.2269 23.5523 16.9445L15.0536 8.43164C14.7853 8.16341 14.3195 8.16341 14.0512 8.43164ZM17.4536 22.0692L9.92892 14.5586L14.5595 9.9281L22.0841 17.4527L17.4536 22.0833V22.0692Z" fill="white"/>
<path d="M15.9999 5.41175C19.0069 5.41175 21.8445 6.69645 23.8351 8.88466H19.981V10.2964H25.2892C25.6845 10.2964 25.9951 9.98583 25.9951 9.59054V4.28235H24.5833V7.65644C22.3387 5.34116 19.261 4 15.9858 4C9.37877 4 4 9.37877 4 15.9999C4 17.0305 4.12706 18.0469 4.38117 19.0352L5.75057 18.6822C5.52469 17.8069 5.41175 16.9175 5.41175 15.9999C5.41175 10.1552 10.1552 5.41175 15.9999 5.41175Z" fill="white"/>
<path d="M7.40199 24.3436C9.64667 26.6588 12.7243 28 15.9996 28C22.6207 28 27.9994 22.6212 27.9994 16.0001C27.9994 14.9695 27.8724 13.9531 27.6183 12.9648L26.2489 13.3178C26.4748 14.179 26.5877 15.0825 26.5877 16.0001C26.5877 21.8448 21.8442 26.5882 15.9996 26.5882C12.9925 26.5882 10.1549 25.3036 8.16433 23.1153H12.0184V21.7036H6.69611C6.30082 21.7036 5.99023 22.0142 5.99023 22.4095V27.7176H7.40199V24.3436Z" fill="white"/>
</svg>
