<svg width="32" height="32" viewBox="0 0 32 32" fill="none" xmlns="http://www.w3.org/2000/svg">
<g clip-path="url(#clip0_2502_10739)">
<path d="M8.80065 21.2546C10.3337 24.1284 12.9107 26.3045 16.0007 27.3346C19.0906 26.3045 21.6676 24.1284 23.2007 21.2546C23.8261 20.0606 24.1897 18.747 24.2673 17.4013L24.6673 8.2013C21.6437 7.38579 18.7326 6.19898 16.0007 4.66797C13.2687 6.19898 10.3577 7.38579 7.33398 8.2013L7.73398 17.4013C7.81156 18.747 8.1752 20.0606 8.80065 21.2546ZM11.4673 14.0946L15.0407 17.6946L20.5873 12.0013L21.534 12.9346L15.454 19.0946C15.3225 19.2139 15.1515 19.2804 14.974 19.2813C14.8 19.2823 14.6326 19.2154 14.5073 19.0946L10.5073 15.0146L11.4673 14.0946Z" fill="#C4C4C4"/>
</g>
<defs>
<clipPath id="clip0_2502_10739">
<rect width="32" height="32" fill="white"/>
</clipPath>
</defs>
</svg>
