<svg width="32" height="32" viewBox="0 0 32 32" fill="none" xmlns="http://www.w3.org/2000/svg">
<g clip-path="url(#clip0_2502_10743)">
<path d="M16.0002 21.1059C17.3551 21.1059 18.4535 20.0075 18.4535 18.6526C18.4535 17.2976 17.3551 16.1992 16.0002 16.1992C14.6453 16.1992 13.5469 17.2976 13.5469 18.6526C13.5469 20.0075 14.6453 21.1059 16.0002 21.1059Z" fill="#1D6CEB"/>
<path d="M6.66602 16.0817C6.66602 18.5571 7.64935 20.931 9.39969 22.6814C11.15 24.4317 13.524 25.4151 15.9993 25.4151C18.4747 25.4151 20.8487 24.4317 22.599 22.6814C24.3493 20.931 25.3327 18.5571 25.3327 16.0817V12.7617H6.66602V16.0817ZM15.9993 14.8684C16.7477 14.8684 17.4793 15.0901 18.1017 15.5056C18.7241 15.9211 19.2095 16.5117 19.4965 17.2029C19.7835 17.894 19.8592 18.6547 19.7142 19.3889C19.5692 20.1231 19.2098 20.7978 18.6816 21.3279C18.1534 21.858 17.4799 22.2197 16.7462 22.3673C16.0126 22.5149 15.2516 22.4418 14.5595 22.1573C13.8673 21.8727 13.275 21.3895 12.8573 20.7685C12.4396 20.1475 12.2153 19.4167 12.2127 18.6684C12.2109 18.17 12.3076 17.6762 12.4971 17.2152C12.6866 16.7542 12.9652 16.3352 13.317 15.9822C13.6688 15.6291 14.0869 15.349 14.5472 15.1579C15.0075 14.9668 15.501 14.8684 15.9993 14.8684Z" fill="#1D6CEB"/>
<path d="M7.33268 11.5052H24.666C25.3733 11.5052 26.0515 11.2242 26.5516 10.7241C27.0517 10.224 27.3327 9.54573 27.3327 8.83849V6.78516H4.66602V8.83849C4.66602 9.18868 4.73499 9.53544 4.869 9.85898C5.00302 10.1825 5.19944 10.4765 5.44706 10.7241C5.94716 11.2242 6.62544 11.5052 7.33268 11.5052Z" fill="#1D6CEB"/>
</g>
<defs>
<clipPath id="clip0_2502_10743">
<rect width="32" height="32" fill="white"/>
</clipPath>
</defs>
</svg>
